<svg width="328" height="70" viewBox="0 0 328 70" fill="none" xmlns="http://www.w3.org/2000/svg">
<g clip-path="url(#clip0_675:9224)">
<path d="M111.35 30.2C111.289 30.5308 111.163 30.8461 110.978 31.127C110.793 31.4079 110.553 31.6488 110.274 31.8354C109.994 32.0219 109.679 32.1503 109.349 32.213C109.018 32.2756 108.679 32.2712 108.35 32.2L106.91 31.9C105.313 31.583 103.688 31.4289 102.06 31.44C101.123 31.4512 100.188 31.5213 99.2601 31.65H98.9601C98.3566 31.7325 97.8038 32.0316 97.4045 32.4916C97.0053 32.9515 96.7869 33.541 96.7901 34.15V63.15C96.7901 63.8184 96.5246 64.4594 96.052 64.9319C95.5794 65.4045 94.9384 65.67 94.2701 65.67H86.8601C86.5283 65.6714 86.1995 65.6072 85.8926 65.4811C85.5857 65.355 85.3068 65.1696 85.0717 64.9355C84.8366 64.7014 84.6501 64.4231 84.5229 64.1167C84.3956 63.8103 84.3301 63.4818 84.3301 63.15V25.87C84.3292 25.332 84.5005 24.8078 84.819 24.3742C85.1375 23.9405 85.5864 23.6202 86.1001 23.46C87.9201 22.8867 89.9634 22.3434 92.2301 21.83C95.5684 21.1156 98.9766 20.7802 102.39 20.83C103.06 20.83 103.87 20.83 104.82 20.96C105.77 21.09 106.71 21.15 107.66 21.29C108.61 21.43 109.55 21.6 110.5 21.79C110.824 21.8599 111.13 21.9931 111.402 22.182C111.674 22.3708 111.906 22.6116 112.084 22.8905C112.263 23.1693 112.384 23.4807 112.442 23.8067C112.5 24.1327 112.492 24.4669 112.42 24.79L111.35 30.2Z" fill="#181135"/>
<path d="M159.92 43.6101C159.953 46.8358 159.443 50.044 158.41 53.1001C157.494 55.8291 156.011 58.3337 154.06 60.4501C152.156 62.4969 149.833 64.1101 147.25 65.1801C141.55 67.4072 135.22 67.4072 129.52 65.1801C126.938 64.1076 124.616 62.4948 122.71 60.4501C120.754 58.3228 119.248 55.823 118.28 53.1001C117.191 50.0562 116.653 46.8427 116.69 43.6101C116.647 40.3866 117.2 37.1829 118.32 34.1601C119.32 31.4561 120.857 28.9829 122.84 26.8901C124.775 24.8705 127.107 23.2736 129.69 22.2001C135.273 19.9733 141.497 19.9733 147.08 22.2001C149.657 23.2689 151.98 24.8667 153.9 26.8901C155.851 28.9904 157.358 31.4632 158.33 34.1601C159.423 37.1892 159.961 40.3902 159.92 43.6101V43.6101ZM147.21 43.6101C147.21 39.7567 146.443 36.7334 144.91 34.5401C144.192 33.4726 143.211 32.6076 142.063 32.028C140.914 31.4484 139.635 31.1736 138.35 31.2301C137.058 31.1746 135.773 31.4494 134.616 32.0285C133.46 32.6077 132.47 33.4721 131.74 34.5401C130.18 36.7401 129.4 39.7634 129.4 43.6101C129.4 47.4567 130.18 50.5067 131.74 52.7601C132.457 53.8463 133.442 54.7291 134.6 55.323C135.758 55.9168 137.05 56.2017 138.35 56.1501C139.644 56.2018 140.928 55.9166 142.078 55.3223C143.228 54.728 144.204 53.8451 144.91 52.7601C146.437 50.5001 147.203 47.4501 147.21 43.6101V43.6101Z" fill="#181135"/>
<path d="M210.67 43.6101C210.708 46.8361 210.198 50.0452 209.16 53.1001C208.244 55.8291 206.761 58.3337 204.81 60.4501C202.906 62.4969 200.583 64.1101 198 65.1801C192.3 67.4072 185.97 67.4072 180.27 65.1801C177.688 64.1076 175.366 62.4948 173.46 60.4501C171.493 58.3255 169.976 55.8255 169 53.1001C167.911 50.0562 167.373 46.8427 167.41 43.6101C167.367 40.3866 167.92 37.1829 169.04 34.1601C170.04 31.4561 171.577 28.9829 173.56 26.8901C175.495 24.8705 177.827 23.2736 180.41 22.2001C185.993 19.9733 192.217 19.9733 197.8 22.2001C200.377 23.2689 202.7 24.8667 204.62 26.8901C206.571 28.9904 208.078 31.4632 209.05 34.1601C210.153 37.1873 210.702 40.3884 210.67 43.6101V43.6101ZM197.96 43.6101C197.96 39.7567 197.193 36.7334 195.66 34.5401C194.942 33.4726 193.961 32.6076 192.813 32.028C191.664 31.4484 190.385 31.1736 189.1 31.2301C187.808 31.1746 186.523 31.4494 185.366 32.0285C184.21 32.6077 183.22 33.4721 182.49 34.5401C180.93 36.7401 180.15 39.7634 180.15 43.6101C180.15 47.4567 180.93 50.5067 182.49 52.7601C183.207 53.8463 184.192 54.7291 185.35 55.323C186.508 55.9168 187.8 56.2017 189.1 56.1501C190.394 56.2018 191.678 55.9166 192.828 55.3223C193.978 54.728 194.954 53.8451 195.66 52.7601C197.22 50.5001 198 47.4501 198 43.6101H197.96Z" fill="#181135"/>
<path d="M244.44 42.3501C244.44 38.3501 243.927 35.5067 242.9 33.8201C241.873 32.1334 240.103 31.3001 237.59 31.3201C236.81 31.3201 236 31.3601 235.16 31.4401C234.5 31.5117 233.889 31.8251 233.446 32.3198C233.003 32.8146 232.759 33.4559 232.76 34.1201V63.0001C232.76 63.7162 232.476 64.4029 231.969 64.9093C231.463 65.4156 230.776 65.7001 230.06 65.7001H223C222.284 65.7001 221.597 65.4156 221.091 64.9093C220.585 64.4029 220.3 63.7162 220.3 63.0001V25.3201C220.301 24.7119 220.507 24.1218 220.884 23.6448C221.262 23.1677 221.789 22.8315 222.38 22.6901L224.02 22.3301C225.44 22.0201 226.95 21.7401 228.54 21.4901C230.13 21.2401 231.76 21.0501 233.43 20.9101C235.1 20.7701 236.74 20.7001 238.36 20.7001C240.99 20.6069 243.614 21.0176 246.09 21.9101C247.314 22.4005 248.486 23.0101 249.59 23.7301C250.007 24.018 250.498 24.1812 251.004 24.2007C251.511 24.2201 252.012 24.0951 252.45 23.8401C253.928 22.9806 255.498 22.2896 257.13 21.7801C259.197 21.1007 261.355 20.7366 263.53 20.7001C266.482 20.6028 269.424 21.0992 272.18 22.1601C274.312 23.0377 276.172 24.4665 277.57 26.3001C278.955 28.1829 279.898 30.3532 280.33 32.6501C280.856 35.3512 281.111 38.0982 281.09 40.8501V63.0001C281.09 63.7162 280.806 64.4029 280.299 64.9093C279.793 65.4156 279.106 65.7001 278.39 65.7001H271.3C270.946 65.7001 270.595 65.6302 270.268 65.4944C269.941 65.3586 269.644 65.1595 269.394 64.9087C269.144 64.6578 268.947 64.3601 268.812 64.0326C268.677 63.705 268.609 63.3542 268.61 63.0001V42.3501C268.61 38.3501 268.093 35.5067 267.06 33.8201C266.027 32.1334 264.257 31.3001 261.75 31.3201C260.799 31.3649 259.858 31.5329 258.95 31.8201L258.25 32.0301C257.645 32.237 257.132 32.6521 256.804 33.2016C256.477 33.751 256.355 34.399 256.46 35.0301C256.592 35.7173 256.682 36.4119 256.73 37.1101C256.85 38.5301 256.9 40.0501 256.9 41.6601V63.0001C256.901 63.3542 256.833 63.705 256.698 64.0326C256.564 64.3601 256.366 64.6578 256.116 64.9087C255.866 65.1595 255.569 65.3586 255.242 65.4944C254.915 65.6302 254.564 65.7001 254.21 65.7001H247.14C246.424 65.7001 245.737 65.4156 245.231 64.9093C244.725 64.4029 244.44 63.7162 244.44 63.0001V42.3501Z" fill="#181135"/>
<path d="M308.15 20.5301C311.264 20.45 314.37 20.8721 317.35 21.7801C319.58 22.4833 321.605 23.7189 323.25 25.3801C324.749 26.988 325.824 28.9433 326.38 31.0701C327.017 33.498 327.326 36.0002 327.3 38.5101V62.3401C327.302 62.9327 327.097 63.5073 326.721 63.9654C326.345 64.4234 325.821 64.7362 325.24 64.8501C323.747 65.1434 321.953 65.4768 319.86 65.8501C316.04 66.4196 312.181 66.6838 308.32 66.6401C305.724 66.6645 303.133 66.4131 300.59 65.8901C298.448 65.4657 296.41 64.6266 294.59 63.4201C292.935 62.2955 291.607 60.7534 290.74 58.9501C289.793 56.8222 289.338 54.5081 289.41 52.1801C289.346 49.8876 289.894 47.6195 291 45.6101C291.998 43.8632 293.422 42.3976 295.14 41.3501C296.973 40.2481 298.983 39.4701 301.08 39.0501C303.362 38.5728 305.688 38.3349 308.02 38.3401C309.456 38.3311 310.892 38.4012 312.32 38.5501C313.352 38.6499 314.376 38.8304 315.38 39.0901V37.9201C315.422 36.9835 315.272 36.0482 314.94 35.1714C314.608 34.2945 314.101 33.4945 313.45 32.8201C312.17 31.5401 309.94 30.9001 306.76 30.9001C304.661 30.8969 302.565 31.0506 300.49 31.3601C299.54 31.5001 298.64 31.6701 297.81 31.8701C297.467 31.9531 297.11 31.964 296.763 31.9021C296.415 31.8401 296.084 31.7067 295.791 31.5102C295.498 31.3138 295.248 31.0585 295.059 30.7607C294.869 30.4629 294.744 30.129 294.69 29.7801L293.91 24.9001C293.805 24.2665 293.942 23.6167 294.294 23.0795C294.646 22.5423 295.187 22.1571 295.81 22.0001L296.24 21.9001C297.33 21.6501 298.51 21.4301 299.79 21.2301C301.07 21.0301 302.43 20.8701 303.85 20.7301C305.27 20.5901 306.7 20.5301 308.15 20.5301ZM309.15 56.9801C310.37 56.9801 311.54 56.9801 312.66 56.9001H312.93C313.583 56.8618 314.196 56.5753 314.644 56.0993C315.092 55.6233 315.341 54.9939 315.34 54.3401V49.3901C315.339 48.7657 315.108 48.1636 314.691 47.6988C314.274 47.2339 313.7 46.9389 313.08 46.8701C312.164 46.7641 311.242 46.7073 310.32 46.7001C309.216 46.6958 308.114 46.766 307.02 46.9101C306.076 47.0211 305.157 47.2881 304.3 47.7001C303.557 48.0591 302.923 48.6075 302.46 49.2901C301.99 50.0405 301.756 50.9151 301.79 51.8001C301.712 52.596 301.858 53.3979 302.211 54.1153C302.564 54.8327 303.111 55.437 303.79 55.8601C305.452 56.6946 307.302 57.0872 309.16 57.0001L309.15 56.9801Z" fill="#181135"/>
<path d="M61.34 20.13L38.83 2.35005C36.8607 0.795325 34.4169 -0.0352551 31.9081 -0.00248407C29.3993 0.030287 26.978 0.924417 25.05 2.53005L3.93 20.13C2.70283 21.1596 1.71532 22.4447 1.0365 23.8956C0.357686 25.3466 0.00394254 26.9282 0 28.5301L0 58.53C0.005298 61.4254 1.15919 64.2003 3.20839 66.2458C5.25758 68.2912 8.03465 69.4401 10.93 69.44H12.26C14.78 69.44 17.5 67.44 17.5 64.88V33.7901C17.5 29.5401 20.29 24.07 24.5 24.07H42.73C46.98 24.07 50.45 29.5401 50.45 33.7901C50.4447 35.8368 49.63 37.7984 48.1836 39.2466C46.7373 40.6949 44.7768 41.5121 42.73 41.5201L35.5 41.94C35.0459 41.9636 34.6062 42.1072 34.2258 42.3562C33.8453 42.6051 33.5378 42.9506 33.3344 43.3573C33.1311 43.7639 33.0393 44.2173 33.0684 44.671C33.0975 45.1248 33.2464 45.5627 33.5 45.94C37.5 52.03 40.93 59.27 47.32 66.87C48.0551 67.6779 48.9506 68.3237 49.9492 68.7662C50.9478 69.2087 52.0277 69.4382 53.12 69.44H54.57C56.0062 69.44 57.4283 69.157 58.755 68.6071C60.0818 68.0572 61.2871 67.2512 62.3022 66.2352C63.3173 65.2192 64.1222 64.0131 64.6709 62.6859C65.2196 61.3586 65.5013 59.9362 65.5 58.5V28.71C65.5013 27.0583 65.1276 25.4278 64.407 23.9415C63.6864 22.4552 62.6377 21.152 61.34 20.13Z" fill="url(#paint0_linear_675:9224)"/>
</g>
<defs>
<linearGradient id="paint0_linear_675:9224" x1="0" y1="34.72" x2="65.5" y2="34.72" gradientUnits="userSpaceOnUse">
<stop stop-color="#7751E8"/>
<stop offset="1" stop-color="#4D3FE8"/>
</linearGradient>
<clipPath id="clip0_675:9224">
<rect width="327.3" height="69.44" fill="white"/>
</clipPath>
</defs>
</svg>
