<svg width="22" height="27" viewBox="0 0 22 27" fill="none" xmlns="http://www.w3.org/2000/svg">
<path d="M18.5257 15.0332V10.992C18.5239 9.19144 17.8849 7.4496 16.7219 6.07498C15.5589 4.70035 13.947 3.78164 12.1716 3.48155V2.09637C12.1716 1.75933 12.0378 1.43609 11.7994 1.19777C11.5611 0.95945 11.2379 0.825562 10.9008 0.825562C10.5638 0.825562 10.2406 0.95945 10.0022 1.19777C9.76392 1.43609 9.63003 1.75933 9.63003 2.09637V3.48155C7.85463 3.78164 6.24272 4.70035 5.07976 6.07498C3.91679 7.4496 3.27781 9.19144 3.27599 10.992V15.0332C2.53441 15.2954 1.89208 15.7805 1.43705 16.4221C0.982028 17.0637 0.736586 17.8303 0.734375 18.6169V21.1585C0.734375 21.4955 0.868263 21.8188 1.10659 22.0571C1.34491 22.2954 1.66814 22.4293 2.00518 22.4293H5.99552C6.28816 23.5061 6.92702 24.4568 7.81353 25.1345C8.70004 25.8122 9.78493 26.1794 10.9008 26.1794C12.0167 26.1794 13.1016 25.8122 13.9881 25.1345C14.8746 24.4568 15.5135 23.5061 15.8062 22.4293H19.7965C20.1335 22.4293 20.4568 22.2954 20.6951 22.0571C20.9334 21.8188 21.0673 21.4955 21.0673 21.1585V18.6169C21.0651 17.8303 20.8196 17.0637 20.3646 16.4221C19.9096 15.7805 19.2673 15.2954 18.5257 15.0332V15.0332ZM5.8176 10.992C5.8176 9.64386 6.35316 8.35092 7.30645 7.39763C8.25974 6.44434 9.55268 5.90879 10.9008 5.90879C12.249 5.90879 13.5419 6.44434 14.4952 7.39763C15.4485 8.35092 15.9841 9.64386 15.9841 10.992V14.8044H5.8176V10.992ZM10.9008 23.7001C10.4573 23.6974 10.0222 23.5787 9.63871 23.3558C9.25525 23.1328 8.93681 22.8134 8.71505 22.4293H13.0866C12.8649 22.8134 12.5464 23.1328 12.163 23.3558C11.7795 23.5787 11.3444 23.6974 10.9008 23.7001ZM18.5257 19.8877H3.27599V18.6169C3.27599 18.2798 3.40988 17.9566 3.6482 17.7183C3.88652 17.4799 4.20976 17.3461 4.5468 17.3461H17.2549C17.5919 17.3461 17.9151 17.4799 18.1535 17.7183C18.3918 17.9566 18.5257 18.2798 18.5257 18.6169V19.8877Z" fill="#4E4E4E"/>
</svg>
