<svg width="42" height="42" viewBox="0 0 42 42" fill="none" xmlns="http://www.w3.org/2000/svg">
<path d="M21 42C18.1562 42 15.4355 41.4463 12.8379 40.3389C10.2402 39.2314 8.00488 37.7412 6.13184 35.8682C4.25879 33.9951 2.76855 31.7598 1.66113 29.1621C0.553711 26.5645 0 23.8438 0 21C0 18.1562 0.553711 15.4355 1.66113 12.8379C2.76855 10.2402 4.25879 8.00488 6.13184 6.13184C8.00488 4.25879 10.2402 2.76855 12.8379 1.66113C15.4355 0.553711 18.1562 0 21 0C23.8438 0 26.5645 0.553711 29.1621 1.66113C31.7598 2.76855 33.9951 4.25879 35.8682 6.13184C37.7412 8.00488 39.2314 10.2402 40.3389 12.8379C41.4463 15.4355 42 18.1562 42 21C42 23.8438 41.4463 26.5645 40.3389 29.1621C39.2314 31.7598 37.7412 33.9951 35.8682 35.8682C33.9951 37.7412 31.7598 39.2314 29.1621 40.3389C26.5645 41.4463 23.8438 42 21 42ZM21 2.625C18.5117 2.625 16.1328 3.11035 13.8633 4.08105C11.5938 5.05176 9.63867 6.35742 7.99805 7.99805C6.35742 9.63867 5.05176 11.5938 4.08105 13.8633C3.11035 16.1328 2.625 18.5117 2.625 21C2.625 23.4883 3.11035 25.8672 4.08105 28.1367C5.05176 30.4062 6.35742 32.3613 7.99805 34.002C9.63867 35.6426 11.5938 36.9482 13.8633 37.9189C16.1328 38.8896 18.5117 39.375 21 39.375C23.4883 39.375 25.8672 38.8896 28.1367 37.9189C30.4062 36.9482 32.3613 35.6426 34.002 34.002C35.6426 32.3613 36.9482 30.4062 37.9189 28.1367C38.8896 25.8672 39.375 23.4883 39.375 21C39.375 18.5117 38.8896 16.1328 37.9189 13.8633C36.9482 11.5938 35.6426 9.63867 34.002 7.99805C32.3613 6.35742 30.4062 5.05176 28.1367 4.08105C25.8672 3.11035 23.4883 2.625 21 2.625ZM28.875 31.5C27.4258 31.5 26.1885 30.9873 25.1631 29.9619C24.1377 28.9365 23.625 27.6992 23.625 26.25C23.625 24.8008 24.1377 23.5635 25.1631 22.5381C26.1885 21.5127 27.4258 21 28.875 21C30.3242 21 31.5615 21.5127 32.5869 22.5381C33.6123 23.5635 34.125 24.8008 34.125 26.25C34.125 27.6992 33.6123 28.9365 32.5869 29.9619C31.5615 30.9873 30.3242 31.5 28.875 31.5ZM21 18.375C19.5508 18.375 18.3135 17.8623 17.2881 16.8369C16.2627 15.8115 15.75 14.5742 15.75 13.125C15.75 11.6758 16.2627 10.4385 17.2881 9.41309C18.3135 8.3877 19.5508 7.875 21 7.875C22.4492 7.875 23.6865 8.3877 24.7119 9.41309C25.7373 10.4385 26.25 11.6758 26.25 13.125C26.25 14.5742 25.7373 15.8115 24.7119 16.8369C23.6865 17.8623 22.4492 18.375 21 18.375ZM18.375 26.25C18.375 27.6992 17.8623 28.9365 16.8369 29.9619C15.8115 30.9873 14.5742 31.5 13.125 31.5C11.6758 31.5 10.4385 30.9873 9.41309 29.9619C8.3877 28.9365 7.875 27.6992 7.875 26.25C7.875 24.8008 8.3877 23.5635 9.41309 22.5381C10.4385 21.5127 11.6758 21 13.125 21C14.5742 21 15.8115 21.5127 16.8369 22.5381C17.8623 23.5635 18.375 24.8008 18.375 26.25Z" fill="#4A4A4A"/>
</svg>
