<svg width="35" height="35" viewBox="0 0 35 35" fill="none" xmlns="http://www.w3.org/2000/svg">
<g clip-path="url(#clip0_611:8330)">
<path d="M33.7133 17.8793C33.7133 16.7443 33.6213 15.6031 33.4249 14.4865H17.6753V20.9164H26.6944C26.3201 22.9901 25.1176 24.8246 23.3567 25.9904V30.1624H28.7375C31.8972 27.2542 33.7133 22.9595 33.7133 17.8793Z" fill="#4285F4"/>
<path d="M17.6752 34.1934C22.1786 34.1934 25.9765 32.7148 28.7435 30.1624L23.3628 25.9903C21.8657 27.0088 19.9331 27.5856 17.6814 27.5856C13.3252 27.5856 9.63171 24.6467 8.30646 20.6955H2.75391V24.9964C5.58847 30.6349 11.3619 34.1934 17.6752 34.1934Z" fill="#34A853"/>
<path d="M8.3004 20.6955C7.60096 18.6217 7.60096 16.3761 8.3004 14.3024V10.0014H2.75399C0.385716 14.7196 0.385716 20.2783 2.75399 24.9964L8.3004 20.6955Z" fill="#FBBC04"/>
<path d="M17.6752 7.40615C20.0558 7.36933 22.3566 8.26511 24.0806 9.9094L28.8478 5.14218C25.8292 2.30762 21.8228 0.749222 17.6752 0.798305C11.3619 0.798305 5.58847 4.35685 2.75391 10.0014L8.30032 14.3024C9.61944 10.345 13.3191 7.40615 17.6752 7.40615Z" fill="#EA4335"/>
</g>
<defs>
<clipPath id="clip0_611:8330">
<rect width="33.3951" height="33.3951" fill="white" transform="translate(0.643799 0.79718)"/>
</clipPath>
</defs>
</svg>
