<svg width="34" height="34" viewBox="0 0 34 34" fill="none" xmlns="http://www.w3.org/2000/svg">
<path d="M32.6113 3.05731H25.4776V0.339701C25.4776 0.152866 25.3247 0 25.1379 0H22.76C22.5731 0 22.4203 0.152866 22.4203 0.339701V3.05731H11.5498V0.339701C11.5498 0.152866 11.397 0 11.2101 0H8.83223C8.6454 0 8.49253 0.152866 8.49253 0.339701V3.05731H1.3588C0.607216 3.05731 0 3.66453 0 4.41612V32.6113C0 33.3629 0.607216 33.9701 1.3588 33.9701H32.6113C33.3629 33.9701 33.9701 33.3629 33.9701 32.6113V4.41612C33.9701 3.66453 33.3629 3.05731 32.6113 3.05731ZM30.9128 30.9128H3.05731V14.777H30.9128V30.9128ZM3.05731 11.8895V6.11462H8.49253V8.15283C8.49253 8.33967 8.6454 8.49253 8.83223 8.49253H11.2101C11.397 8.49253 11.5498 8.33967 11.5498 8.15283V6.11462H22.4203V8.15283C22.4203 8.33967 22.5731 8.49253 22.76 8.49253H25.1379C25.3247 8.49253 25.4776 8.33967 25.4776 8.15283V6.11462H30.9128V11.8895H3.05731Z" fill="#4A4A4A"/>
</svg>
