<svg width="569" height="348" viewBox="0 0 569 348" fill="none" xmlns="http://www.w3.org/2000/svg">
<g clip-path="url(#clip0_667:9344)">
<path d="M266.79 347.724L266.074 346.979C266.215 346.843 280.31 333.041 285.682 307.25C290.642 283.433 288.967 244.221 252.814 192.67C237.708 171.13 227.407 150.779 222.196 132.183C217.939 116.988 217.037 102.863 219.517 90.1993C224.42 65.162 241.083 54.1703 241.251 54.0623L241.811 54.9307C241.646 55.0366 225.331 65.822 220.525 90.4299C215.01 118.663 226.159 152.862 253.66 192.076C269.719 214.976 280.409 237.398 285.433 258.723C289.458 275.806 289.878 292.225 286.68 307.527C281.229 333.606 266.934 347.586 266.79 347.724Z" fill="#F2F2F2"/>
<path d="M232.1 111.728C254.19 111.728 272.097 93.821 272.097 71.7311C272.097 49.6413 254.19 31.7339 232.1 31.7339C210.01 31.7339 192.103 49.6413 192.103 71.7311C192.103 93.821 210.01 111.728 232.1 111.728Z" fill="white"/>
<path d="M241.53 108.993C230.752 108.993 220.216 105.797 211.254 99.809C202.292 93.8208 195.307 85.3096 191.182 75.3517C187.057 65.3938 185.978 54.4363 188.081 43.865C190.184 33.2937 195.374 23.5833 202.995 15.9618C210.617 8.34027 220.327 3.14995 230.898 1.04716C241.47 -1.05563 252.427 0.0235577 262.385 4.14825C272.343 8.27295 280.854 15.2579 286.843 24.2198C292.831 33.1817 296.027 43.7181 296.027 54.4965C296.011 68.9449 290.264 82.7968 280.047 93.0134C269.831 103.23 255.979 108.977 241.53 108.993ZM241.53 1.03332C230.956 1.0333 220.62 4.16884 211.828 10.0435C203.036 15.9181 196.183 24.2679 192.137 34.037C188.09 43.8062 187.031 54.5559 189.094 64.9268C191.157 75.2976 196.249 84.8239 203.726 92.3009C211.203 99.7779 220.729 104.87 231.1 106.933C241.471 108.996 252.221 107.937 261.99 103.89C271.759 99.8437 280.109 92.9912 285.984 84.1992C291.858 75.4071 294.994 65.0705 294.994 54.4965C294.978 40.3221 289.34 26.7329 279.317 16.7101C269.294 6.68726 255.705 1.04939 241.53 1.03332Z" fill="#F2F2F2"/>
<path d="M272.097 195.625C290.416 195.625 305.266 180.775 305.266 162.456C305.266 144.138 290.416 129.288 272.097 129.288C253.779 129.288 238.929 144.138 238.929 162.456C238.929 180.775 253.779 195.625 272.097 195.625Z" fill="white"/>
<path d="M255.188 310.739C273.506 310.739 288.356 295.889 288.356 277.57C288.356 259.252 273.506 244.402 255.188 244.402C236.87 244.402 222.02 259.252 222.02 277.57C222.02 295.889 236.87 310.739 255.188 310.739Z" fill="white"/>
<path d="M394.433 58.8997H273.016V137.949H394.433V58.8997Z" fill="#6C63FF"/>
<path d="M556.437 347.715H443.99C443.99 347.715 441.711 314.285 455.197 313.905C468.683 313.525 467.163 328.721 484.068 307.827C500.973 286.933 521.488 288.072 524.147 300.419C526.806 312.765 519.018 322.642 533.264 319.603C547.51 316.564 568.024 324.542 556.437 347.715Z" fill="white"/>
<path d="M498.316 347.723L497.936 347.707C498.821 325.697 503.431 311.555 507.142 303.568C511.171 294.895 515.054 291.384 515.093 291.349L515.346 291.633C515.307 291.667 511.47 295.144 507.472 303.758C503.782 311.712 499.197 325.795 498.316 347.723Z" fill="white"/>
<path d="M539.013 347.768L538.648 347.662C541.476 338.334 546.574 329.853 553.485 322.978L553.74 323.26C546.88 330.086 541.82 338.507 539.013 347.768Z" fill="white"/>
<path d="M461.701 347.741L461.325 347.689C462.551 339.437 461.253 331.007 457.603 323.506C456.106 320.359 454.124 317.467 451.73 314.935L451.993 314.661C454.418 317.224 456.426 320.152 457.944 323.337C461.628 330.907 462.937 339.414 461.701 347.741Z" fill="white"/>
<path d="M44.1944 347.607L43.935 347.074C43.8561 346.912 36.0879 330.673 40.4191 314.663C44.7504 298.652 59.6456 288.544 59.7955 288.444L60.2877 288.115L60.547 288.647C60.626 288.809 68.3941 305.048 64.0628 321.058C59.7317 337.07 44.8365 347.177 44.6866 347.277L44.1944 347.607ZM59.8709 289.656C57.2631 291.553 45.1987 300.951 41.4166 314.932C37.6316 328.924 43.3149 343.114 44.6111 346.065C47.2189 344.168 59.2834 334.77 63.0653 320.789C66.8504 306.797 61.1671 292.608 59.8709 289.656Z" fill="#3F3D56"/>
<path d="M24.1661 320.924C28.4969 336.933 43.3307 346.848 43.3307 346.848C43.3307 346.848 51.1431 330.807 46.8123 314.798C42.4815 298.788 27.6476 288.874 27.6476 288.874C27.6476 288.874 19.8353 304.915 24.1661 320.924Z" fill="#6C63FF"/>
<path d="M44.4282 347.383L43.8369 347.35C43.6567 347.341 25.6903 346.233 13.805 334.664C1.9202 323.094 0.33009 305.164 0.315458 304.984L0.267273 304.394L0.858612 304.426C1.03874 304.436 19.0052 305.543 30.8902 317.113C42.7753 328.683 44.3654 346.613 44.38 346.793L44.4282 347.383ZM1.41161 305.508C1.80137 308.708 4.14781 323.821 14.526 333.923C24.9042 344.026 40.0734 345.965 43.2839 346.269C42.8941 343.068 40.5477 327.956 30.1692 317.854C19.7835 307.743 4.62057 305.81 1.41161 305.508Z" fill="#3F3D56"/>
<path d="M57.2003 317.483C45.3166 329.052 43.8651 346.835 43.8651 346.835C43.8651 346.835 61.6808 345.862 73.5646 334.294C85.4483 322.725 86.8998 304.942 86.8998 304.942C86.8998 304.942 69.084 305.915 57.2003 317.483Z" fill="#3F3D56"/>
<path d="M153.817 217.25C141.933 228.819 140.481 246.602 140.481 246.602C140.481 246.602 158.297 245.629 170.181 234.061C182.065 222.492 183.516 204.709 183.516 204.709C183.516 204.709 165.7 205.682 153.817 217.25Z" fill="#3F3D56"/>
<path d="M43.6174 286.232C47.8976 286.232 51.3674 282.762 51.3674 278.482C51.3674 274.202 47.8976 270.732 43.6174 270.732C39.3372 270.732 35.8674 274.202 35.8674 278.482C35.8674 282.762 39.3372 286.232 43.6174 286.232Z" fill="#6C63FF"/>
<path d="M137.641 347.207L136.925 346.462C137.037 346.354 148.216 335.403 152.474 314.942C156.407 296.044 155.071 264.928 126.377 224.012C104.37 192.632 95.4648 165.216 99.9081 142.525C103.811 122.591 117.087 113.835 117.221 113.749L117.78 114.617C117.651 114.701 104.723 123.251 100.916 142.756C96.5437 165.154 105.395 192.293 127.223 223.419C139.989 241.622 148.487 259.448 152.482 276.401C155.683 289.987 156.016 303.047 153.472 315.218C149.135 335.969 137.755 347.097 137.641 347.207Z" fill="#3F3D56"/>
<path d="M132.484 139.499C183.846 139.499 225.483 132.356 225.483 123.545C225.483 114.733 183.846 107.59 132.484 107.59C81.1214 107.59 39.4841 114.733 39.4841 123.545C39.4841 132.356 81.1214 139.499 132.484 139.499Z" fill="#6C63FF"/>
<path d="M115.175 134.849C50.7133 134.849 0.217651 125.998 0.217651 114.699C0.217651 103.4 50.7133 94.5495 115.175 94.5495C179.638 94.5495 230.133 103.4 230.133 114.699C230.133 125.998 179.638 134.849 115.175 134.849ZM115.175 95.5829C53.422 95.5829 1.25098 104.337 1.25098 114.699C1.25098 125.062 53.422 133.816 115.175 133.816C176.929 133.816 229.1 125.062 229.1 114.699C229.1 104.337 176.929 95.5829 115.175 95.5829Z" fill="#3F3D56"/>
<path d="M141.298 36.396C141.298 36.396 127.517 32.5139 123.441 51.3419C119.365 70.1699 122.47 79.681 122.47 79.681L153.236 76.09C153.236 76.09 161.97 42.122 141.298 36.396Z" fill="#2F2E41"/>
<path d="M120.68 117.944C120.68 117.944 100.465 119.957 104.065 128.119C107.666 136.28 107.666 137 107.666 137L125.429 168.685L131.189 162.684C131.189 162.684 124.708 148.522 124.708 143.961C124.708 139.4 117.987 131.479 117.987 131.479L129.749 130.519L120.68 117.944Z" fill="#A0616A"/>
<path d="M176.076 127.639L182.797 142.281C182.797 142.281 187.838 147.321 193.359 167.484C198.879 187.647 200.08 186.927 200.08 186.927L191.678 188.608C191.678 188.608 182.317 166.764 179.196 165.084C176.076 163.404 172.235 148.042 172.235 148.042L161.194 134.12L164.554 126.678L176.076 127.639Z" fill="#A0616A"/>
<path d="M167.915 110.836L178.236 130.039C178.236 130.039 165.274 124.038 163.354 137.24L151.592 128.119C151.592 128.119 135.27 133.399 125.429 131.479C125.429 131.479 128.309 122.358 117.987 118.277L141.271 115.397L140.311 110.356L142.711 105.555L167.915 110.836Z" fill="#2F2E41"/>
<path d="M126.869 164.364C126.869 164.364 120.388 163.404 122.068 169.165L125.429 180.686C125.429 180.686 121.108 192.448 127.829 189.808C134.55 187.167 138.871 170.845 138.871 170.845C138.871 170.845 141.751 158.363 138.871 158.363C135.99 158.363 126.869 156.443 127.829 158.363C128.789 160.283 126.869 164.364 126.869 164.364Z" fill="#2F2E41"/>
<path d="M199.359 183.567C199.359 183.567 190.958 181.406 189.038 184.767C187.118 188.127 187.598 199.169 187.598 199.409C187.598 199.649 190.478 202.05 191.438 202.05C192.398 202.05 198.399 212.851 206.561 209.011C214.722 205.17 199.359 183.567 199.359 183.567Z" fill="#2F2E41"/>
<path d="M138.871 65.7094C144.041 65.7094 148.232 61.5182 148.232 56.348C148.232 51.1779 144.041 46.9867 138.871 46.9867C133.7 46.9867 129.509 51.1779 129.509 56.348C129.509 61.5182 133.7 65.7094 138.871 65.7094Z" fill="#A0616A"/>
<path d="M146.552 58.2683C146.552 58.2683 148.472 68.3498 150.152 69.79C151.832 71.2302 137.43 73.3905 137.43 73.3905C137.43 73.3905 139.591 66.4295 136.95 62.829C134.31 59.2284 146.552 58.2683 146.552 58.2683Z" fill="#A0616A"/>
<path d="M171.755 115.397C170.121 115.397 165.959 114.72 161.292 113.849C157.255 113.095 152.836 112.199 149.35 111.475C145.618 110.697 142.951 110.116 142.951 110.116C142.951 110.116 141.991 116.117 138.87 115.397C136.182 114.777 128.148 86.7149 125.976 78.9594C125.817 78.3931 125.848 77.7904 126.063 77.2431C126.278 76.6959 126.667 76.2339 127.169 75.9277L138.203 69.1899L141.031 70.2701C141.031 70.2701 145.808 66.5783 148.58 66.5039C151.352 66.4295 156.153 65.7094 156.153 65.7094C156.153 65.7094 161.674 66.1895 162.634 70.2701C163.594 74.3507 164.074 99.7944 167.675 104.355C171.275 108.916 176.316 115.397 171.755 115.397Z" fill="#D0CDE1"/>
<path d="M138.15 128.839C138.15 128.839 138.15 138.2 144.391 136.76C150.632 135.32 144.871 126.678 144.871 126.678L138.15 128.839Z" fill="#A0616A"/>
<path d="M155.433 129.799C155.433 129.799 153.273 140.841 148.712 139.16C144.151 137.48 148.712 127.639 148.712 127.639L155.433 129.799Z" fill="#A0616A"/>
<path opacity="0.15" d="M165.514 103.635C165.514 103.635 163.164 109.242 161.292 113.849C157.255 113.095 152.836 112.199 149.35 111.475C149.601 110.812 149.952 110.191 150.392 109.636C152.072 107.716 151.112 107.236 151.112 107.236C149.672 104.355 150.872 100.515 150.872 100.515C147.992 92.8334 152.313 83.232 152.313 83.232L165.514 103.635Z" fill="black"/>
<path d="M153.033 83.232C153.033 83.232 148.712 92.8334 151.592 100.515C151.592 100.515 150.392 104.355 151.832 107.236C151.832 107.236 152.793 107.716 151.112 109.636C149.432 111.556 147.992 118.277 149.192 119.717C150.392 121.158 147.512 123.798 148.232 125.238C148.952 126.678 147.032 128.599 147.032 128.599C147.032 128.599 154.233 130.039 155.433 132.199C155.433 132.199 156.873 130.519 156.153 128.599C155.433 126.678 155.913 125.958 156.633 124.758C157.353 123.558 159.514 120.918 159.754 119.717C159.994 118.517 166.235 103.635 166.235 103.635L163.308 76.5143L153.033 83.232Z" fill="#D0CDE1"/>
<path d="M128.069 76.511L127.62 76.5925C126.995 76.7059 126.43 77.0364 126.024 77.5257C125.619 78.0149 125.399 78.6316 125.404 79.2671C125.421 81.6771 125.557 85.9542 126.149 91.8733C127.109 101.475 130.469 115.877 131.189 117.317C132.333 119.866 133.615 122.35 135.03 124.758C137.19 128.359 137.67 127.158 137.19 128.839C137.044 129.302 137.034 129.797 137.162 130.265C137.29 130.733 137.55 131.155 137.91 131.479C137.91 131.479 142.231 126.678 146.552 129.319C146.86 128.64 147.024 127.904 147.032 127.158C147.032 125.958 147.752 124.758 146.552 124.038C145.351 123.318 147.272 120.197 145.351 118.517C143.431 116.837 143.191 117.077 143.431 115.397C143.543 114.254 143.379 113.102 142.951 112.036L128.069 76.511Z" fill="#D0CDE1"/>
<path d="M142.37 44.3228C142.37 44.3228 138.488 54.6102 128.977 58.8805L127.424 49.7576L142.37 44.3228Z" fill="#2F2E41"/>
<path d="M147.992 55.2679C148.721 55.2679 149.312 54.1395 149.312 52.7475C149.312 51.3556 148.721 50.2272 147.992 50.2272C147.263 50.2272 146.672 51.3556 146.672 52.7475C146.672 54.1395 147.263 55.2679 147.992 55.2679Z" fill="#A0616A"/>
<path d="M419.435 185.41C428.696 185.41 436.203 177.903 436.203 168.642C436.203 159.382 428.696 151.874 419.435 151.874C410.174 151.874 402.667 159.382 402.667 168.642C402.667 177.903 410.174 185.41 419.435 185.41Z" fill="#2F2E41"/>
<path d="M417.195 152.189C420.272 152.189 422.765 149.695 422.765 146.619C422.765 143.543 420.272 141.049 417.195 141.049C414.119 141.049 411.626 143.543 411.626 146.619C411.626 149.695 414.119 152.189 417.195 152.189Z" fill="#2F2E41"/>
<path d="M410.928 150.069C410.069 148.988 409.643 147.627 409.731 146.249C409.819 144.872 410.415 143.576 411.404 142.613C411.248 142.713 411.096 142.822 410.948 142.939C410.375 143.394 409.897 143.958 409.542 144.597C409.187 145.237 408.962 145.94 408.879 146.667C408.795 147.393 408.856 148.129 409.057 148.832C409.258 149.536 409.596 150.192 410.051 150.765C410.506 151.338 411.069 151.815 411.709 152.17C412.348 152.525 413.051 152.751 413.778 152.834C414.505 152.918 415.241 152.857 415.944 152.656C416.647 152.455 417.304 152.117 417.877 151.662C418.025 151.544 418.165 151.421 418.297 151.292C417.136 152.037 415.739 152.325 414.377 152.099C413.016 151.873 411.786 151.149 410.928 150.069Z" fill="#2F2E41"/>
<path d="M391.97 229.28L382.265 237.492C382.265 237.492 367.707 241.972 374.799 246.824C381.892 251.677 385.998 240.852 385.998 240.852L397.942 233.386L391.97 229.28Z" fill="#FFB9B9"/>
<path d="M412.873 193.446L411.754 192.7C411.754 192.7 407.274 192.7 406.528 197.179C405.781 201.658 403.542 210.99 403.542 210.99C403.542 210.99 396.076 215.469 396.823 223.681L388.984 230.4C388.984 230.4 398.316 233.386 396.449 235.999L410.261 223.308L410.634 199.045L412.873 193.446Z" fill="#2F2E41"/>
<path d="M417.353 184.861C422.713 184.861 427.058 180.516 427.058 175.156C427.058 169.796 422.713 165.451 417.353 165.451C411.993 165.451 407.648 169.796 407.648 175.156C407.648 180.516 411.993 184.861 417.353 184.861Z" fill="#FFB9B9"/>
<path d="M414.367 181.875C414.367 181.875 420.339 188.594 416.606 192.326C412.873 196.059 411.754 214.349 411.754 214.349L428.178 189.34C428.178 189.34 423.698 180.381 424.072 177.395L414.367 181.875Z" fill="#FFB9B9"/>
<path d="M413.247 208.004C413.247 208.004 422.205 188.327 427.058 186.967L439.749 190.087C439.749 190.087 429.671 224.801 430.791 228.161C431.91 231.52 438.256 236.373 436.016 265.861C436.016 265.861 464.759 318.493 457.666 327.451C450.574 336.41 424.072 343.129 423.698 340.516C423.325 337.903 411.38 297.589 413.247 285.271C413.247 285.271 413.247 338.65 411.007 339.769C408.767 340.889 372.933 349.101 374.053 342.756C375.173 336.41 393.09 266.608 393.09 266.608L406.901 223.308L407.274 216.962C407.274 216.962 401.302 212.856 405.781 203.524C410.261 194.193 411.754 192.699 411.754 192.699L417.131 191.69C417.131 191.69 412.127 205.391 413.247 208.004Z" fill="#2F2E41"/>
<path d="M433.403 235.999L428.924 245.704C428.924 245.704 417.353 258.022 425.565 258.396C433.777 258.769 434.523 247.198 434.523 247.198L440.496 235.999H433.403Z" fill="#FFB9B9"/>
<path d="M434.897 190.46H439.749C439.749 190.46 441.242 188.22 442.735 197.552C444.228 206.884 443.482 221.068 443.482 221.068L441.242 239.732C441.242 239.732 433.404 236.746 431.537 237.492C429.671 238.239 431.537 237.119 431.537 237.119L434.897 224.428L430.791 206.137L434.897 190.46Z" fill="#2F2E41"/>
<path d="M416.37 160.845C410.031 162.568 405.707 166.962 406.711 170.66C407.161 172.314 408.605 173.546 410.627 174.251L412.402 172.049L412.483 174.721C412.763 174.769 413.048 174.811 413.342 174.842L415.597 170.094L416.882 174.825C417.938 174.713 418.984 174.516 420.009 174.236C426.348 172.514 430.673 168.12 429.668 164.422C428.663 160.724 422.71 159.123 416.37 160.845Z" fill="#2F2E41"/>
<path d="M427.244 174.969C427.863 174.969 428.364 174.133 428.364 173.103C428.364 172.072 427.863 171.236 427.244 171.236C426.626 171.236 426.125 172.072 426.125 173.103C426.125 174.133 426.626 174.969 427.244 174.969Z" fill="#FFB9B9"/>
<path d="M389.266 347.715C394.117 347.715 398.049 345.98 398.049 343.84C398.049 341.7 394.117 339.965 389.266 339.965C384.415 339.965 380.483 341.7 380.483 343.84C380.483 345.98 384.415 347.715 389.266 347.715Z" fill="#2F2E41"/>
<path d="M436.942 345.87C442.993 343.485 447.05 339.399 446.004 336.744C444.957 334.09 439.204 333.871 433.152 336.256C427.101 338.642 423.044 342.727 424.09 345.382C425.137 348.037 430.89 348.255 436.942 345.87Z" fill="#2F2E41"/>
<path d="M377.627 241.937C377.473 241.899 362.151 237.999 356.32 222.508C349.674 204.851 357.488 179.952 379.543 148.503C406.482 110.09 407.945 97.1833 404.428 93.1199C399.98 87.98 386.022 94.9398 385.882 95.0107L385.416 94.0884C386.019 93.7837 400.235 86.6969 405.209 92.4431C410.675 98.7576 402.324 117.818 380.389 149.096C368.437 166.138 360.625 181.435 357.171 194.562C354.369 205.205 354.407 214.479 357.281 222.128C362.911 237.11 377.724 240.897 377.873 240.933L377.627 241.937Z" fill="#3F3D56"/>
<path d="M386.166 125.549H256.483V40.8165H386.166V125.549ZM257.516 124.516H385.133V41.8498H257.516V124.516Z" fill="#3F3D56"/>
<path d="M310.492 94.4213C313.497 94.4213 315.934 91.9849 315.934 88.9794C315.934 85.9739 313.497 83.5374 310.492 83.5374C307.486 83.5374 305.05 85.9739 305.05 88.9794C305.05 91.9849 307.486 94.4213 310.492 94.4213Z" fill="#3F3D56"/>
<path d="M356.957 94.4213C359.963 94.4213 362.399 91.9849 362.399 88.9794C362.399 85.9739 359.963 83.5374 356.957 83.5374C353.952 83.5374 351.516 85.9739 351.516 88.9794C351.516 91.9849 353.952 94.4213 356.957 94.4213Z" fill="#3F3D56"/>
<path d="M356.957 111.166C356.957 112.784 346.462 117.445 333.515 117.445C320.568 117.445 310.073 112.784 310.073 111.166C310.073 109.547 320.568 111.584 333.515 111.584C346.462 111.584 356.957 109.547 356.957 111.166Z" fill="#3F3D56"/>
<path d="M568.331 346.967H0V348H568.331V346.967Z" fill="#3F3D56"/>
</g>
<defs>
<clipPath id="clip0_667:9344">
<rect width="568.331" height="348" fill="white"/>
</clipPath>
</defs>
</svg>
