<svg width="38" height="16" viewBox="0 0 38 16" fill="none" xmlns="http://www.w3.org/2000/svg">
<path d="M14.2773 0H8C5.87827 3.16163e-08 3.84344 0.842855 2.34315 2.34315C0.842855 3.84344 0 5.87827 0 8C0 10.1217 0.842855 12.1566 2.34315 13.6569C3.84344 15.1571 5.87827 16 8 16H16C17.2802 16.0007 18.5419 15.6941 19.679 15.106C20.8161 14.518 21.7956 13.6656 22.535 12.6205C23.2743 11.5754 23.7521 10.3682 23.9282 9.10012C24.1042 7.83208 23.9734 6.54032 23.5467 5.33333H21.3333C21.104 5.33333 20.88 5.36 20.6667 5.416C21.1164 6.22802 21.3464 7.14335 21.334 8.0715C21.3215 8.99966 21.067 9.9085 20.5957 10.7082C20.1244 11.5078 19.4525 12.1706 18.6465 12.631C17.8405 13.0915 16.9282 13.3335 16 13.3333H8C6.58551 13.3333 5.22896 12.7714 4.22876 11.7712C3.22857 10.771 2.66667 9.41449 2.66667 8C2.66667 6.58551 3.22857 5.22896 4.22876 4.22876C5.22896 3.22857 6.58551 2.66667 8 2.66667H12.0933C12.6747 1.664 13.4133 0.762667 14.28 0H14.2773Z" fill="#7751E8"/>
<path d="M21.3323 1.09995e-06C20.0521 -0.00067016 18.7905 0.305902 17.6533 0.893964C16.5162 1.48203 15.5368 2.3344 14.7974 3.37949C14.058 4.42457 13.5802 5.63184 13.4041 6.89988C13.2281 8.16791 13.3589 9.45968 13.7857 10.6667H16.7137C16.2456 9.85591 15.9991 8.93622 15.9991 8.00003C15.9991 7.06385 16.2455 6.14416 16.7136 5.33339C17.1817 4.52263 17.855 3.84936 18.6657 3.38125C19.4765 2.91314 20.3961 2.66669 21.3323 2.66667H29.3323C30.7468 2.66667 32.1034 3.22857 33.1036 4.22876C34.1037 5.22896 34.6657 6.58551 34.6657 8C34.6657 9.41449 34.1037 10.771 33.1036 11.7712C32.1034 12.7714 30.7468 13.3333 29.3323 13.3333H25.239C24.6588 14.3344 23.9203 15.2349 23.0523 16H29.3323C30.3829 16 31.4232 15.7931 32.3938 15.391C33.3644 14.989 34.2463 14.3997 34.9892 13.6569C35.732 12.914 36.3213 12.0321 36.7234 11.0615C37.1254 10.0909 37.3323 9.05057 37.3323 8C37.3323 6.94943 37.1254 5.90914 36.7234 4.93853C36.3213 3.96793 35.732 3.08602 34.9892 2.34315C34.2463 1.60028 33.3644 1.011 32.3938 0.608965C31.4232 0.206928 30.3829 1.0843e-06 29.3323 1.09995e-06H21.3323Z" fill="#7751E8"/>
</svg>
