<svg width="532" height="374" viewBox="0 0 532 374" fill="none" xmlns="http://www.w3.org/2000/svg">
<g opacity="0.75" clip-path="url(#clip0_667:9272)">
<path d="M114.485 245.612C124.657 245.612 132.903 228.786 132.903 208.031C132.903 187.275 124.657 170.449 114.485 170.449C104.312 170.449 96.0659 187.275 96.0659 208.031C96.0659 228.786 104.312 245.612 114.485 245.612Z" fill="#E6E6E6"/>
<path d="M116.185 269.545C108.808 225.286 116.111 181.186 116.185 180.746L117.62 180.989C117.546 181.427 110.285 225.295 117.621 269.307L116.185 269.545Z" fill="#3F3D56"/>
<path d="M130.7 199.949L114.045 208.858L114.731 210.142L131.387 201.233L130.7 199.949Z" fill="#3F3D56"/>
<path d="M97.153 204.412L96.4661 205.695L113.119 214.609L113.806 213.326L97.153 204.412Z" fill="#3F3D56"/>
<path d="M485.955 2.50833H455.766V107.006H485.955V2.50833Z" fill="#3F3D56"/>
<path d="M505.89 87.348L432.468 0L285.086 1.34756L195.682 88.4284L197.489 89.5899H196.844V270.719H505.692V89.5899L505.89 87.348Z" fill="#3F3D56"/>
<path d="M432.544 0.186066L340.819 107.725V270.719H505.692V87.2676L432.544 0.186066Z" fill="#6C63FF"/>
<path d="M440.672 180.581H407V210.343H440.672V180.581Z" fill="#3F3D56"/>
<path d="M440.672 129.067H407V158.357H440.672V129.067Z" fill="#3F3D56"/>
<path d="M440.672 180.581H407V210.343H440.672V180.581Z" fill="white"/>
<path d="M440.672 129.067H407V158.357H440.672V129.067Z" fill="white"/>
<path d="M317.953 265.408C317.953 265.408 318.674 250.283 333.472 252.041L317.953 265.408Z" fill="#E6E6E6"/>
<path d="M313.771 251.015C317.862 251.015 321.178 247.699 321.178 243.609C321.178 239.518 317.862 236.202 313.771 236.202C309.681 236.202 306.365 239.518 306.365 243.609C306.365 247.699 309.681 251.015 313.771 251.015Z" fill="#6C63FF"/>
<path d="M314.657 256.08H312.567V270.714H314.657V256.08Z" fill="#E6E6E6"/>
<path d="M70.2294 223.576C90.1253 223.576 106.254 190.667 106.254 150.072C106.254 109.476 90.1253 76.5668 70.2294 76.5668C50.3336 76.5668 34.2048 109.476 34.2048 150.072C34.2048 190.667 50.3336 223.576 70.2294 223.576Z" fill="#6C63FF"/>
<path d="M74.2426 270.273C59.8336 183.821 74.0972 97.6828 74.2429 96.8229L75.6778 97.0659C75.5325 97.9238 61.3108 183.83 75.6782 270.034L74.2426 270.273Z" fill="#3F3D56"/>
<path d="M102.275 134.879L69.698 152.304L70.3845 153.587L102.961 136.163L102.275 134.879Z" fill="#3F3D56"/>
<path d="M36.0043 143.608L35.3174 144.891L67.8893 162.325L68.5762 161.041L36.0043 143.608Z" fill="#3F3D56"/>
<path d="M155.551 206.416C182.777 206.416 204.848 161.383 204.848 105.831C204.848 50.2791 182.777 5.24542 155.551 5.24542C128.325 5.24542 106.254 50.2791 106.254 105.831C106.254 161.383 128.325 206.416 155.551 206.416Z" fill="#6C63FF"/>
<path d="M161.306 270.273C141.596 152.013 161.107 34.1853 161.307 33.009L162.742 33.2521C162.543 34.4262 143.073 152.022 162.742 270.034L161.306 270.273Z" fill="#3F3D56"/>
<path d="M199.529 85.2771L154.95 109.122L155.637 110.405L200.215 86.5607L199.529 85.2771Z" fill="#3F3D56"/>
<path d="M108.589 97.222L107.903 98.5054L152.475 122.362L153.162 121.078L108.589 97.222Z" fill="#3F3D56"/>
<path d="M532 269.521H0V270.787H532V269.521Z" fill="#3F3D56"/>
<path d="M291.033 172.684H257.362V202.446H291.033V172.684Z" fill="#3F3D56"/>
<path d="M291.033 121.17H257.362V150.459H291.033V121.17Z" fill="#3F3D56"/>
<path d="M291.033 172.684H257.362V202.446H291.033V172.684Z" fill="white"/>
<path d="M291.033 121.17H257.362V150.459H291.033V121.17Z" fill="white"/>
</g>
<g clip-path="url(#clip1_667:9272)">
<path d="M179.212 213.391C178.551 213.458 177.886 213.473 177.222 213.438C177.109 213.425 176.996 213.458 176.907 213.528C176.817 213.599 176.759 213.701 176.745 213.814L175.476 223.333C175.378 224.024 175.095 224.676 174.657 225.219C174.296 225.651 174.027 226.153 173.868 226.694C173.709 227.234 173.663 227.801 173.732 228.36V244.53C173.732 244.53 173.65 246.686 175.307 246.686C177.289 246.935 179.295 246.935 181.278 246.686C181.278 246.686 182.604 246.435 182.604 244.445V228.524C182.705 227.968 182.684 227.398 182.543 226.851C182.402 226.304 182.143 225.795 181.785 225.358C181.362 224.813 181.088 224.167 180.991 223.483L179.673 213.765C179.658 213.656 179.602 213.556 179.516 213.487C179.431 213.418 179.322 213.383 179.212 213.391Z" fill="white"/>
<path d="M178.286 247.145C177.284 247.145 176.283 247.083 175.289 246.959C175.066 246.964 174.846 246.923 174.64 246.839C174.434 246.755 174.248 246.629 174.093 246.47C173.419 245.769 173.457 244.57 173.459 244.52L173.459 228.377C173.388 227.783 173.44 227.182 173.61 226.609C173.78 226.036 174.065 225.503 174.447 225.044C174.853 224.54 175.115 223.936 175.205 223.295L176.474 213.778C176.499 213.595 176.594 213.429 176.739 213.315C176.884 213.201 177.068 213.147 177.252 213.166C177.896 213.2 178.542 213.185 179.184 213.12L179.192 213.119C179.371 213.106 179.548 213.162 179.688 213.275C179.827 213.388 179.919 213.55 179.943 213.728L181.261 223.447C181.352 224.083 181.607 224.684 182 225.191C182.38 225.654 182.654 226.194 182.806 226.774C182.957 227.353 182.981 227.959 182.877 228.548V244.445C182.877 246.636 181.344 246.951 181.328 246.954C180.319 247.081 179.303 247.145 178.286 247.145ZM177.185 213.709C177.144 213.707 177.104 213.72 177.073 213.746C177.042 213.772 177.021 213.809 177.015 213.849L175.746 223.369C175.641 224.11 175.338 224.808 174.869 225.39C174.532 225.795 174.281 226.264 174.131 226.769C173.982 227.274 173.938 227.804 174.002 228.327L174.004 228.36V244.53C174.004 244.55 173.975 245.561 174.488 246.092C174.594 246.2 174.722 246.285 174.863 246.34C175.004 246.395 175.155 246.42 175.306 246.413L175.34 246.415C177.3 246.661 179.283 246.661 181.243 246.415C181.269 246.409 182.331 246.167 182.331 244.445L182.335 228.475C182.43 227.959 182.41 227.428 182.279 226.919C182.148 226.411 181.907 225.937 181.574 225.531C181.119 224.947 180.825 224.254 180.721 223.522L179.402 213.802C179.396 213.762 179.376 213.726 179.345 213.7C179.314 213.674 179.274 213.661 179.234 213.663C178.561 213.731 177.883 213.746 177.207 213.71C177.2 213.709 177.192 213.709 177.185 213.709H177.185Z" fill="#3F3D56"/>
<path d="M177.209 228.65H179.22C180.02 228.65 180.787 228.967 181.352 229.533C181.918 230.098 182.236 230.865 182.236 231.665V239.233C182.236 240.033 181.918 240.8 181.352 241.365C180.787 241.931 180.02 242.248 179.22 242.248H177.209C176.409 242.248 175.642 241.931 175.076 241.365C174.511 240.8 174.193 240.033 174.193 239.233V231.665C174.193 231.269 174.271 230.877 174.423 230.511C174.574 230.145 174.796 229.813 175.076 229.533C175.356 229.253 175.689 229.031 176.055 228.879C176.421 228.728 176.813 228.65 177.209 228.65Z" fill="#E6E2FF"/>
<path d="M140.231 367.643H146.789L149.908 342.351L140.23 342.351L140.231 367.643Z" fill="#9F616A"/>
<path d="M138.559 365.503L151.473 365.502H151.473C153.656 365.502 155.749 366.369 157.292 367.913C158.836 369.456 159.703 371.549 159.703 373.732V373.999L138.559 374L138.559 365.503Z" fill="#2F2E41"/>
<path d="M136.109 277.304C136.109 277.304 133.267 280.516 137.973 293.039L137.144 361.703L152.394 361.405L155.746 327.911L161.849 279.035L136.109 277.304Z" fill="#2F2E41"/>
<path d="M167.079 286.797L166.912 286.772C147.403 283.796 132.682 280.944 132.535 280.915L132.352 280.88L137.466 268.441C137.426 267.141 136.319 230.642 138.438 220.155C140.49 210.004 150.16 208.34 151.262 208.184L152.368 204.517L166.347 211.791L168.785 220.182L169.281 243.18L167.079 286.797Z" fill="#3F3D56"/>
<path d="M175.499 239.463C174.869 239.463 174.246 239.593 173.67 239.845C173.093 240.098 172.575 240.466 172.147 240.929H148.651L140.044 242.761L141.457 253.66L172.074 247.075C172.58 247.648 173.223 248.084 173.942 248.345C174.66 248.605 175.433 248.681 176.189 248.566C176.945 248.451 177.66 248.149 178.269 247.686C178.878 247.224 179.361 246.616 179.675 245.919C179.989 245.222 180.123 244.457 180.065 243.694C180.007 242.932 179.759 242.196 179.344 241.554C178.929 240.912 178.359 240.384 177.688 240.019C177.016 239.654 176.263 239.463 175.499 239.463H175.499Z" fill="#9F616A"/>
<path d="M175.703 200.397C178.703 194.91 176.686 188.029 171.198 185.029C165.71 182.029 158.83 184.046 155.83 189.534C152.83 195.022 154.847 201.902 160.335 204.902C165.822 207.902 172.703 205.885 175.703 200.397Z" fill="#9F616A"/>
<path d="M155.116 185.913L154.567 184.808L157.33 183.435C157.33 183.435 160.377 178.477 165.891 179.87C171.405 181.264 173.886 182.098 173.886 182.098L176.642 183.484L175.259 184.86L177.74 185.694L176.082 186.517L178.011 187.626L176.972 193.308C176.972 193.308 175.248 188.998 171.933 190.645C168.619 192.292 162.555 189.794 162.555 189.794L157.288 199.988C157.288 199.988 156.201 196.415 154.263 197.368C154.263 197.368 149.313 189.484 155.116 185.913Z" fill="#2F2E41"/>
<path d="M141.608 255.703L138.92 247.71L138.271 221.067L139.415 217.286C139.827 215.926 140.51 214.662 141.422 213.572C142.334 212.481 143.457 211.586 144.723 210.94C145.99 210.294 147.373 209.91 148.791 209.812C150.21 209.713 151.633 209.902 152.977 210.367C154.32 210.832 155.556 211.563 156.61 212.517C157.664 213.471 158.515 214.627 159.111 215.918C159.707 217.208 160.037 218.606 160.08 220.027C160.123 221.448 159.879 222.863 159.362 224.187L153.226 239.912L153.538 240.518L166.833 240.41L171.555 248.911L141.608 255.703Z" fill="#3F3D56"/>
<path d="M274.624 252.419C275.12 252.084 275.537 251.645 275.845 251.133C276.154 250.62 276.346 250.046 276.408 249.451C276.47 248.856 276.401 248.255 276.206 247.689C276.011 247.124 275.694 246.608 275.278 246.178L281.831 233.198L274.325 234.068L269.253 246.261C268.577 247.008 268.199 247.977 268.19 248.984C268.181 249.991 268.542 250.967 269.204 251.726C269.866 252.485 270.783 252.974 271.782 253.102C272.781 253.23 273.793 252.987 274.624 252.419Z" fill="#FFB7B7"/>
<path d="M327.18 344.367L321.274 344.367L318.465 321.587L327.181 321.587L327.18 344.367Z" fill="#FFB7B7"/>
<path d="M328.686 350.092L309.643 350.091V349.85C309.643 347.884 310.424 345.999 311.814 344.609C313.204 343.219 315.089 342.438 317.055 342.438H317.055L328.686 342.439L328.686 350.092Z" fill="#2F2E41"/>
<path d="M294.904 344.367L288.998 344.367L286.189 321.587L294.906 321.587L294.904 344.367Z" fill="#FFB7B7"/>
<path d="M294.965 350.092L275.922 350.091V349.85C275.922 347.884 276.703 345.999 278.093 344.609C279.483 343.219 281.368 342.438 283.334 342.438H283.335L294.966 342.439L294.965 350.092Z" fill="#2F2E41"/>
<path d="M294.42 248.155L288.64 261.473L283.871 338.02L295.914 337.538L299.203 301.048L309.35 268.547L315.183 304.78L317.592 336.574L327.557 337.006L331.528 248.155H294.42Z" fill="#2F2E41"/>
<path d="M323.317 182.44L306.562 182.859L296.726 187.909L296.186 225.164L290.051 250.886C290.051 250.886 328.382 253.524 333.681 249.671L327.419 220.285L335.818 188.528L323.317 182.44Z" fill="#E6E2FF"/>
<path d="M299.313 188.526L297.753 187.473C297.753 187.473 291.291 189.409 289.381 198.026C289.381 198.026 287.92 202.348 287.279 205.32C286.543 208.729 270.302 240.042 270.302 240.042L280.026 242.831L297.853 214.001L299.313 188.526Z" fill="#E6E2FF"/>
<path d="M335.556 257.196C335.171 256.738 334.891 256.201 334.736 255.623C334.582 255.045 334.555 254.441 334.659 253.852C334.764 253.263 334.996 252.703 335.339 252.214C335.683 251.724 336.13 251.316 336.648 251.017L333.928 236.733L340.903 239.64L342.417 252.759C342.86 253.663 342.956 254.699 342.687 255.669C342.418 256.64 341.803 257.478 340.957 258.025C340.111 258.572 339.094 258.789 338.099 258.637C337.103 258.484 336.198 257.971 335.556 257.196Z" fill="#FFB7B7"/>
<path d="M333.297 188.973L335.087 188.39C335.087 188.39 340.764 192.034 340.224 200.843C340.224 200.843 340.437 205.401 340.234 208.434C340.001 211.914 343.124 246.491 343.124 246.491H333.008L328.672 215.179L333.297 188.973Z" fill="#E6E2FF"/>
<path d="M327.429 166.809C327.429 169.107 326.748 171.352 325.472 173.262C324.196 175.172 322.382 176.661 320.259 177.54C318.137 178.419 315.802 178.649 313.549 178.201C311.296 177.753 309.226 176.646 307.602 175.022C305.978 173.398 304.872 171.328 304.423 169.075C303.975 166.822 304.205 164.487 305.084 162.365C305.963 160.242 307.452 158.429 309.362 157.152C311.272 155.876 313.518 155.195 315.815 155.195C318.887 155.187 321.837 156.4 324.015 158.568C326.193 160.735 327.421 163.679 327.429 166.752C327.429 166.771 327.429 166.79 327.429 166.809Z" fill="#FFB7B7"/>
<path d="M304.239 151.209C305.599 148.283 308.232 148.862 310.535 149.854C313.451 149.207 316.225 147.27 319.366 148.415C322.461 152.917 332.852 151.592 330.642 158.921C330.639 160.677 333.946 159.654 333.368 162.53C335.12 168.065 327.045 178.547 322.409 176.34C323.555 174.238 326.175 169.465 322.202 168.992C313.657 176.943 321.32 153.851 310.583 160.567C307.028 163.82 302.161 154.463 304.239 151.209Z" fill="#2F2E41"/>
<path d="M337.589 258.354C338.142 258.465 338.713 258.454 339.261 258.321C339.81 258.187 340.322 257.935 340.762 257.583C341.203 257.23 341.561 256.785 341.81 256.279C342.06 255.773 342.196 255.219 342.208 254.654L371.371 227.205L364.81 221.971L338.157 250.668C337.208 250.71 336.307 251.099 335.626 251.76C334.944 252.422 334.529 253.311 334.459 254.258C334.389 255.206 334.669 256.146 335.246 256.901C335.823 257.656 336.656 258.173 337.589 258.354Z" fill="#9F616A"/>
<path d="M367.239 231.642L361.565 224.993C361.404 224.804 361.285 224.582 361.217 224.343C361.149 224.104 361.133 223.853 361.171 223.607C361.209 223.361 361.299 223.126 361.436 222.919C361.573 222.711 361.753 222.535 361.963 222.403L369.35 217.779C370.322 216.959 371.581 216.557 372.849 216.663C374.117 216.769 375.291 217.373 376.114 218.344C376.938 219.314 377.342 220.571 377.24 221.84C377.137 223.108 376.536 224.284 375.568 225.11L369.859 231.657C369.696 231.844 369.494 231.994 369.267 232.096C369.041 232.199 368.795 232.251 368.546 232.25C368.297 232.248 368.052 232.193 367.826 232.089C367.601 231.984 367.4 231.832 367.239 231.642V231.642Z" fill="#CBCBCB"/>
<path d="M351.982 367.088L344.852 367.088L341.459 339.585L351.983 339.586L351.982 367.088Z" fill="#9F616A"/>
<path d="M353.801 374L330.81 373.999V373.708C330.81 371.335 331.753 369.059 333.431 367.381C335.109 365.703 337.385 364.76 339.758 364.76H339.759L353.801 364.76L353.801 374Z" fill="#2F2E41"/>
<path d="M408.978 367.088L401.848 367.088L398.456 339.585L408.98 339.586L408.978 367.088Z" fill="#9F616A"/>
<path d="M410.797 374L387.806 373.999V373.708C387.806 371.335 388.749 369.059 390.427 367.381C392.106 365.703 394.382 364.76 396.755 364.76H396.756L410.798 364.76L410.797 374Z" fill="#2F2E41"/>
<path d="M389.799 246.221L396.986 219.667L387.662 214.426H374.647L369.585 219.841C369.585 219.841 361.128 225.726 363.175 232.245L366.477 247.095L361.427 270.679L335.98 305.969L329.956 340.633L353.668 346.849L379.309 296.36L391.741 352.265L414.87 351.101L406.9 283.317C406.9 283.317 404.628 262.668 392.72 249.775L389.799 246.221Z" fill="#2F2E41"/>
<path d="M404.642 269.716C405.043 269.319 405.352 268.839 405.547 268.31C405.743 267.78 405.819 267.214 405.772 266.652C405.725 266.09 405.555 265.545 405.274 265.055C404.994 264.566 404.609 264.143 404.148 263.819L398.571 226.197L390.567 228.724L398.58 264.958C398.085 265.769 397.906 266.734 398.075 267.669C398.244 268.603 398.75 269.444 399.498 270.03C400.245 270.617 401.181 270.909 402.13 270.851C403.078 270.793 403.972 270.389 404.642 269.716Z" fill="#9F616A"/>
<path d="M399.95 232.101L391.267 233.102C391.02 233.131 390.769 233.106 390.533 233.029C390.296 232.952 390.079 232.825 389.896 232.656C389.713 232.488 389.569 232.282 389.473 232.053C389.376 231.823 389.331 231.576 389.339 231.327L389.62 222.618C389.482 221.353 389.85 220.085 390.645 219.091C391.44 218.098 392.597 217.46 393.861 217.318C395.126 217.176 396.395 217.541 397.391 218.333C398.386 219.126 399.027 220.28 399.173 221.544L401.423 229.934C401.488 230.174 401.5 230.425 401.458 230.671C401.417 230.916 401.323 231.149 401.183 231.355C401.043 231.56 400.861 231.734 400.648 231.862C400.435 231.991 400.197 232.073 399.95 232.101V232.101Z" fill="#CBCBCB"/>
<path d="M366.6 206.874V195.685C366.6 191.709 368.18 187.896 370.992 185.084C373.803 182.272 377.617 180.693 381.593 180.693C385.569 180.693 389.383 182.272 392.194 185.084C395.006 187.896 396.586 191.709 396.586 195.685V206.874C396.585 207.408 396.373 207.92 395.995 208.297C395.618 208.675 395.106 208.887 394.572 208.888H368.614C368.08 208.887 367.568 208.675 367.191 208.297C366.813 207.92 366.601 207.408 366.6 206.874Z" fill="#2F2E41"/>
<path d="M383.785 207.28C389.112 204.369 391.07 197.69 388.158 192.363C385.246 187.036 378.567 185.078 373.241 187.99C367.914 190.902 365.956 197.581 368.868 202.908C371.78 208.235 378.459 210.192 383.785 207.28Z" fill="#9F616A"/>
<path d="M363.054 196.581C363.058 193.436 364.308 190.422 366.532 188.198C368.755 185.975 371.769 184.724 374.914 184.721H377.152C380.296 184.724 383.31 185.975 385.534 188.198C387.757 190.422 389.008 193.436 389.011 196.581V196.804H384.282L382.669 192.288L382.347 196.804H379.903L379.089 194.526L378.926 196.804H363.054V196.581Z" fill="#2F2E41"/>
<path d="M377.43 210.146C377.208 209.845 377.076 209.488 377.048 209.115C377.02 208.743 377.098 208.37 377.273 208.039C379.644 203.529 382.964 195.195 378.557 190.055L378.241 189.686H391.035V208.894L379.412 210.945C379.295 210.966 379.175 210.976 379.056 210.976C378.739 210.976 378.426 210.901 378.143 210.757C377.861 210.612 377.616 210.403 377.43 210.146Z" fill="#2F2E41"/>
<path d="M259.836 220.374C259.674 220.541 259.526 220.721 259.391 220.911L238.545 220.401L236.114 215.957L228.927 218.75L232.468 227.036C232.754 227.705 233.249 228.264 233.88 228.627C234.51 228.991 235.242 229.141 235.964 229.053L259.517 226.208C260.072 226.912 260.829 227.429 261.686 227.692C262.542 227.955 263.459 227.951 264.313 227.68C265.168 227.409 265.92 226.885 266.469 226.176C267.018 225.468 267.338 224.609 267.387 223.714C267.436 222.819 267.212 221.931 266.743 221.166C266.275 220.402 265.585 219.799 264.765 219.436C263.946 219.073 263.035 218.969 262.155 219.137C261.274 219.304 260.466 219.736 259.837 220.374H259.836Z" fill="#FFB7B7"/>
<path d="M191.882 346.974H198.736L201.997 320.536L191.88 320.536L191.882 346.974Z" fill="#FFB7B7"/>
<path d="M190.133 344.736L203.632 344.736H203.632C205.914 344.736 208.102 345.642 209.715 347.256C211.328 348.869 212.234 351.057 212.235 353.338V353.618L190.133 353.619L190.133 344.736Z" fill="#2F2E41"/>
<path d="M254.121 346.822L260.424 344.129L253.037 318.535L243.734 322.51L254.121 346.822Z" fill="#FFB7B7"/>
<path d="M251.634 345.451L264.047 340.148L264.048 340.147C266.146 339.251 268.514 339.225 270.631 340.075C272.748 340.925 274.441 342.581 275.338 344.679L275.447 344.936L255.123 353.619L251.634 345.451Z" fill="#2F2E41"/>
<path d="M225.198 226.102L225.694 234.133L211.206 235.684L196.046 237.306L200.508 225.11L225.198 226.102Z" fill="#FFB7B7"/>
<path d="M225.707 228.984C225.543 228.919 209.178 222.554 199.127 227.758L198.88 227.887L196.874 218.016L195.732 196.796L203.167 193.283L205.214 188.698L219.157 187.872L222.023 191.802L231.778 194.999L225.948 229.079L225.707 228.984Z" fill="#E4E4E4"/>
<path d="M226.219 209.83L227.944 196.278L231.871 195.083L231.937 195.107C232.028 195.14 234.162 195.957 234.747 198.912C235.307 201.748 239.531 219.397 239.573 219.575L239.616 219.752L229.693 223.722L226.219 209.83Z" fill="#E4E4E4"/>
<path d="M249.016 342.175L262.225 339.466L241.113 281.21L233.888 261.34C233.888 261.34 229.305 245.408 227.234 239.243L225.985 230.971L196.405 234.245C196.405 234.245 188.144 246.377 190.654 266.153L189.519 340.482L202.728 341.159L213.792 266.195L233.21 307.29C233.21 307.29 239.331 324.827 243.71 328.628L249.016 342.175Z" fill="#2F2E41"/>
<path d="M208.267 237.004C208.034 236.998 207.802 237.011 207.571 237.042L193.772 221.409L195.377 216.604L188.442 213.234L184.774 221.463C184.478 222.128 184.405 222.871 184.567 223.581C184.729 224.291 185.117 224.929 185.672 225.399L203.772 240.735C203.633 241.621 203.768 242.528 204.158 243.335C204.548 244.142 205.174 244.811 205.954 245.254C206.733 245.696 207.629 245.891 208.522 245.812C209.415 245.733 210.262 245.384 210.952 244.811C211.641 244.239 212.14 243.47 212.382 242.607C212.624 241.744 212.598 240.828 212.306 239.98C212.015 239.132 211.472 238.394 210.751 237.862C210.029 237.33 209.163 237.031 208.267 237.004Z" fill="#FFB7B7"/>
<path d="M187.193 215.55L192.588 200.183C193.194 198.372 193.954 197.272 194.846 196.912C195.022 196.833 195.212 196.792 195.405 196.79C195.598 196.788 195.789 196.826 195.966 196.902L198.385 199.958L200.63 209.39L194.874 222.93L187.193 215.55Z" fill="#E4E4E4"/>
<path d="M222.901 184.693H199.218C198.731 184.692 198.264 184.498 197.92 184.154C197.575 183.809 197.381 183.342 197.381 182.855V172.647C197.381 169.019 198.822 165.54 201.387 162.975C203.953 160.409 207.432 158.968 211.06 158.968C214.688 158.968 218.167 160.409 220.732 162.975C223.298 165.54 224.739 169.019 224.739 172.647V182.855C224.738 183.342 224.544 183.809 224.2 184.154C223.855 184.498 223.388 184.692 222.901 184.693Z" fill="#2F2E41"/>
<path d="M213.871 184.455C219.409 184.455 223.9 179.965 223.9 174.426C223.9 168.887 219.409 164.397 213.871 164.397C208.332 164.397 203.842 168.887 203.842 174.426C203.842 179.965 208.332 184.455 213.871 184.455Z" fill="#FFB7B7"/>
<path d="M227.975 173.668H213.493L213.345 171.589L212.602 173.668H210.372L210.078 169.547L208.606 173.668H204.292V173.464C204.295 170.595 205.436 167.844 207.465 165.816C209.493 163.787 212.243 162.646 215.112 162.643H217.154C220.023 162.646 222.773 163.787 224.802 165.816C226.83 167.844 227.971 170.595 227.975 173.464L227.975 173.668Z" fill="#2F2E41"/>
<path d="M213.375 186.598C213.266 186.598 213.157 186.588 213.05 186.569L202.446 184.698V167.173H214.119L213.83 167.51C209.809 172.199 212.838 179.803 215.002 183.918C215.161 184.22 215.232 184.56 215.207 184.9C215.181 185.24 215.06 185.566 214.858 185.84C214.688 186.075 214.465 186.266 214.208 186.398C213.95 186.529 213.664 186.598 213.375 186.598Z" fill="#2F2E41"/>
<path d="M340.398 228.724C339.737 228.79 339.072 228.806 338.409 228.77C338.296 228.758 338.182 228.79 338.093 228.861C338.004 228.931 337.945 229.034 337.931 229.147L336.662 238.666C336.564 239.357 336.281 240.008 335.843 240.551C335.482 240.984 335.214 241.485 335.054 242.026C334.895 242.566 334.849 243.133 334.918 243.692V259.862C334.918 259.862 334.836 262.018 336.493 262.018C338.475 262.267 340.481 262.267 342.464 262.018C342.464 262.018 343.79 261.767 343.79 259.778V243.856C343.892 243.301 343.871 242.73 343.729 242.183C343.588 241.637 343.329 241.127 342.972 240.691C342.548 240.145 342.274 239.499 342.178 238.816L340.859 229.097C340.844 228.988 340.788 228.889 340.703 228.819C340.617 228.75 340.508 228.716 340.398 228.724Z" fill="white"/>
<path d="M339.473 262.477C338.471 262.477 337.47 262.415 336.476 262.291C336.254 262.296 336.033 262.255 335.827 262.171C335.621 262.087 335.435 261.961 335.281 261.802C334.607 261.102 334.644 259.902 334.646 259.852L334.646 243.709C334.575 243.116 334.627 242.514 334.797 241.941C334.967 241.368 335.252 240.836 335.634 240.376C336.04 239.872 336.302 239.268 336.392 238.627L337.661 229.11C337.686 228.927 337.781 228.761 337.926 228.647C338.071 228.533 338.255 228.48 338.439 228.499C339.083 228.533 339.729 228.517 340.371 228.452L340.379 228.451C340.558 228.438 340.736 228.494 340.875 228.607C341.015 228.72 341.106 228.882 341.13 229.06L342.449 238.779C342.539 239.415 342.794 240.016 343.188 240.523C343.567 240.986 343.842 241.526 343.993 242.106C344.144 242.685 344.168 243.291 344.064 243.88V259.777C344.064 261.968 342.531 262.283 342.515 262.286C341.506 262.413 340.49 262.477 339.473 262.477ZM338.372 229.041C338.332 229.039 338.292 229.053 338.26 229.078C338.229 229.104 338.208 229.141 338.202 229.181L336.933 238.702C336.829 239.442 336.526 240.141 336.056 240.723C335.719 241.127 335.468 241.596 335.319 242.101C335.17 242.606 335.126 243.136 335.19 243.659L335.192 243.692V259.862C335.191 259.882 335.162 260.893 335.675 261.425C335.781 261.533 335.909 261.617 336.05 261.672C336.191 261.727 336.342 261.752 336.493 261.745L336.527 261.747C338.487 261.993 340.47 261.993 342.43 261.747C342.456 261.741 343.518 261.499 343.518 259.777L343.522 243.807C343.617 243.291 343.598 242.76 343.466 242.251C343.335 241.743 343.094 241.269 342.761 240.863C342.306 240.279 342.012 239.587 341.908 238.854L340.589 229.134C340.584 229.094 340.563 229.058 340.532 229.032C340.501 229.007 340.461 228.994 340.421 228.996C339.748 229.063 339.07 229.079 338.395 229.042C338.387 229.042 338.38 229.041 338.372 229.041Z" fill="#3F3D56"/>
<path d="M338.396 243.982H340.407C341.207 243.982 341.974 244.3 342.539 244.865C343.105 245.431 343.422 246.198 343.422 246.997V254.565C343.422 255.365 343.105 256.132 342.539 256.697C341.974 257.263 341.207 257.581 340.407 257.581H338.395C337.596 257.581 336.829 257.263 336.263 256.697C335.698 256.132 335.38 255.365 335.38 254.565V246.997C335.38 246.198 335.698 245.431 336.263 244.865C336.829 244.3 337.596 243.982 338.396 243.982Z" fill="#E6E2FF"/>
<path d="M272.144 215.613C271.483 215.679 270.818 215.695 270.155 215.659C270.042 215.647 269.929 215.679 269.839 215.75C269.75 215.82 269.692 215.923 269.677 216.036L268.408 225.555C268.311 226.246 268.028 226.897 267.59 227.44C267.228 227.873 266.96 228.375 266.801 228.915C266.642 229.455 266.595 230.023 266.665 230.582V246.751C266.665 246.751 266.583 248.907 268.239 248.907C270.222 249.156 272.228 249.156 274.21 248.907C274.21 248.907 275.537 248.656 275.537 246.667V230.745C275.638 230.19 275.617 229.619 275.476 229.072C275.334 228.526 275.076 228.016 274.718 227.58C274.294 227.034 274.021 226.388 273.924 225.705L272.606 215.987C272.591 215.877 272.535 215.778 272.449 215.708C272.363 215.639 272.254 215.605 272.144 215.613Z" fill="white"/>
<path d="M271.219 249.367C270.217 249.367 269.216 249.304 268.222 249.18C268 249.185 267.779 249.145 267.573 249.06C267.368 248.976 267.182 248.85 267.027 248.691C266.353 247.991 266.39 246.792 266.392 246.741L266.392 230.598C266.322 230.005 266.373 229.403 266.543 228.83C266.713 228.257 266.998 227.725 267.381 227.265C267.786 226.761 268.048 226.157 268.138 225.516L269.407 216C269.432 215.816 269.527 215.65 269.672 215.536C269.817 215.422 270.001 215.369 270.185 215.388C270.829 215.422 271.475 215.406 272.117 215.341L272.125 215.34C272.304 215.327 272.482 215.383 272.621 215.496C272.761 215.609 272.852 215.771 272.876 215.949L274.195 225.668C274.285 226.304 274.54 226.905 274.934 227.412C275.313 227.876 275.588 228.416 275.739 228.995C275.89 229.574 275.914 230.18 275.81 230.77V246.667C275.81 248.857 274.277 249.172 274.261 249.175C273.252 249.303 272.236 249.366 271.219 249.367ZM270.118 215.93C270.078 215.928 270.038 215.942 270.006 215.967C269.975 215.993 269.954 216.03 269.948 216.07L268.679 225.591C268.575 226.331 268.272 227.03 267.802 227.612C267.465 228.016 267.214 228.485 267.065 228.99C266.916 229.495 266.872 230.025 266.936 230.548L266.938 230.582V246.751C266.937 246.771 266.908 247.783 267.421 248.314C267.527 248.422 267.655 248.506 267.796 248.561C267.937 248.617 268.088 248.642 268.239 248.634L268.274 248.637C270.234 248.883 272.217 248.883 274.177 248.637C274.203 248.63 275.264 248.388 275.264 246.667L275.268 230.696C275.363 230.18 275.344 229.649 275.212 229.141C275.081 228.632 274.84 228.158 274.507 227.753C274.052 227.168 273.758 226.476 273.654 225.743L272.336 216.023C272.33 215.983 272.309 215.947 272.278 215.921C272.247 215.896 272.208 215.883 272.167 215.885C271.494 215.952 270.816 215.968 270.141 215.932C270.133 215.931 270.126 215.93 270.118 215.93Z" fill="#3F3D56"/>
<path d="M270.142 230.871H272.153C272.953 230.871 273.72 231.189 274.286 231.754C274.851 232.32 275.169 233.087 275.169 233.886V241.454C275.169 242.254 274.851 243.021 274.286 243.587C273.72 244.152 272.953 244.47 272.153 244.47H270.142C269.342 244.47 268.575 244.152 268.009 243.587C267.444 243.021 267.126 242.254 267.126 241.454V233.886C267.126 233.087 267.444 232.32 268.009 231.754C268.575 231.189 269.342 230.871 270.142 230.871Z" fill="#E6E2FF"/>
<path d="M260.576 201.731C259.915 201.797 259.25 201.813 258.587 201.777C258.474 201.765 258.36 201.797 258.271 201.868C258.182 201.938 258.124 202.041 258.109 202.154L256.84 211.673C256.743 212.364 256.46 213.015 256.022 213.558C255.66 213.991 255.392 214.492 255.233 215.033C255.073 215.573 255.027 216.14 255.096 216.7V232.869C255.096 232.869 255.015 235.025 256.671 235.025C258.654 235.274 260.66 235.274 262.642 235.025C262.642 235.025 263.969 234.774 263.969 232.785V216.863C264.07 216.308 264.049 215.737 263.908 215.19C263.766 214.644 263.508 214.134 263.15 213.698C262.726 213.152 262.453 212.506 262.356 211.823L261.038 202.104C261.023 201.995 260.967 201.896 260.881 201.826C260.795 201.757 260.686 201.723 260.576 201.731Z" fill="white"/>
<path d="M259.651 235.484C258.649 235.484 257.648 235.422 256.654 235.298C256.431 235.303 256.211 235.262 256.005 235.178C255.799 235.094 255.613 234.968 255.458 234.809C254.784 234.109 254.822 232.91 254.824 232.859L254.824 216.716C254.753 216.123 254.805 215.521 254.975 214.948C255.145 214.375 255.43 213.843 255.812 213.383C256.218 212.879 256.48 212.275 256.57 211.634L257.839 202.117C257.864 201.934 257.959 201.768 258.104 201.654C258.249 201.54 258.433 201.487 258.617 201.506C259.261 201.54 259.907 201.524 260.549 201.459L260.557 201.458C260.736 201.445 260.913 201.501 261.053 201.614C261.192 201.727 261.284 201.889 261.308 202.067L262.626 211.786C262.717 212.422 262.972 213.023 263.365 213.53C263.745 213.993 264.019 214.533 264.171 215.113C264.322 215.692 264.346 216.298 264.242 216.887V232.785C264.242 234.975 262.709 235.29 262.693 235.293C261.684 235.42 260.668 235.484 259.651 235.484ZM258.55 202.048C258.509 202.046 258.469 202.06 258.438 202.085C258.407 202.111 258.386 202.148 258.38 202.188L257.111 211.709C257.006 212.449 256.703 213.148 256.234 213.73C255.897 214.134 255.646 214.603 255.496 215.108C255.347 215.613 255.303 216.143 255.367 216.666L255.369 216.699V232.869C255.369 232.889 255.34 233.9 255.853 234.432C255.959 234.54 256.087 234.624 256.228 234.679C256.369 234.735 256.52 234.759 256.671 234.752L256.705 234.754C258.665 235 260.648 235 262.608 234.754C262.634 234.748 263.696 234.506 263.696 232.785L263.7 216.814C263.795 216.298 263.775 215.767 263.644 215.258C263.513 214.75 263.272 214.276 262.939 213.87C262.484 213.286 262.19 212.594 262.086 211.861L260.767 202.141C260.761 202.101 260.741 202.065 260.71 202.039C260.679 202.014 260.639 202.001 260.599 202.003C259.926 202.07 259.248 202.086 258.572 202.049C258.565 202.049 258.557 202.048 258.55 202.048Z" fill="#3F3D56"/>
<path d="M258.573 216.989H260.585C261.384 216.989 262.151 217.306 262.717 217.872C263.282 218.438 263.6 219.205 263.6 220.004V227.572C263.6 228.372 263.282 229.139 262.717 229.704C262.151 230.27 261.384 230.588 260.585 230.588H258.573C257.773 230.588 257.006 230.27 256.441 229.704C255.875 229.139 255.558 228.372 255.558 227.572V220.004C255.558 219.205 255.875 218.438 256.441 217.872C257.006 217.306 257.773 216.989 258.573 216.989Z" fill="#E6E2FF"/>
</g>
<defs>
<clipPath id="clip0_667:9272">
<rect width="532" height="270.787" fill="white"/>
</clipPath>
<clipPath id="clip1_667:9272">
<rect width="282.517" height="246.377" fill="white" transform="translate(132.352 127.623)"/>
</clipPath>
</defs>
</svg>
