<svg width="102" height="108" viewBox="0 0 102 108" fill="none" xmlns="http://www.w3.org/2000/svg">
<path d="M95.3765 31.2976L60.3761 3.65176C57.3123 1.23651 53.5115 -0.0521681 49.6106 0.00161795C45.7097 0.055404 41.9458 1.44839 38.9498 3.94719L6.11068 31.2976C4.20257 32.8984 2.66711 34.8966 1.61163 37.1526C0.556154 39.4086 0.00613019 41.868 0 44.3587V91.0051C0 95.5125 1.79053 99.8351 4.97768 103.022C8.16484 106.209 12.4875 108 16.9949 108H19.0629C22.9812 108 27.2104 104.89 27.2104 100.91V52.5373C27.2104 45.929 31.5486 37.4239 38.0946 37.4239H66.3779C72.9862 37.4239 78.3816 45.929 78.3816 52.5373C78.3735 55.7198 77.1066 58.7698 74.8577 61.0217C72.6088 63.2735 69.5604 64.5443 66.3779 64.5566L55.1983 65.2096C54.4923 65.2462 53.8087 65.4695 53.2171 65.8567C52.6255 66.2438 52.1473 66.7809 51.8311 67.4132C51.5149 68.0456 51.3722 68.7504 51.4174 69.4559C51.4626 70.1614 51.6942 70.8424 52.0886 71.4291C58.3858 80.8984 63.6414 92.1557 73.5771 103.973C74.7183 105.231 76.1102 106.237 77.6634 106.925C79.2165 107.613 80.8965 107.969 82.5954 107.969H84.85C89.3573 107.969 93.68 106.178 96.8671 102.991C100.054 99.8041 101.845 95.4813 101.845 90.974V44.6385C101.846 42.0704 101.264 39.5356 100.144 37.2248C99.0233 34.9139 97.3934 32.8874 95.3765 31.2976Z" fill="url(#paint0_linear_675:9223)"/>
<defs>
<linearGradient id="paint0_linear_675:9223" x1="0" y1="53.9834" x2="101.845" y2="53.9834" gradientUnits="userSpaceOnUse">
<stop stop-color="#7751E8"/>
<stop offset="1" stop-color="#4D3FE8"/>
</linearGradient>
</defs>
</svg>
