<svg width="583" height="402" viewBox="0 0 583 402" fill="none" xmlns="http://www.w3.org/2000/svg">
<g clip-path="url(#clip0_667:9470)">
<path d="M179.602 175.129C179.602 242.759 139.397 266.373 89.8009 266.373C40.2052 266.373 0 242.759 0 175.129C0 107.498 89.8009 21.4619 89.8009 21.4619C89.8009 21.4619 179.602 107.498 179.602 175.129Z" fill="#F2F2F2"/>
<path d="M86.5296 256.028L87.4491 199.427L125.724 129.404L87.5934 190.549L88.0066 165.098L114.386 114.437L88.1164 158.364L88.8596 112.591L117.107 72.2582L88.9768 105.393L89.4412 21.4616L86.5218 132.572L86.7613 127.988L58.0419 84.028L86.3011 136.787L83.6248 187.907L83.5453 186.55L50.4368 140.289L83.4449 191.344L83.1102 197.737L83.0506 197.833L83.0778 198.358L76.2886 328.055H85.3596L86.448 261.064L119.375 210.134L86.5296 256.028Z" fill="#3F3D56"/>
<path d="M583 336.499C583 359.896 462.642 401.352 314.174 401.352C165.705 401.352 45.3477 359.896 45.3477 336.499C45.3477 313.102 165.705 316.625 314.174 316.625C462.642 316.625 583 313.102 583 336.499Z" fill="#3F3D56"/>
<path opacity="0.1" d="M583 336.499C583 359.896 462.642 401.352 314.174 401.352C165.705 401.352 45.3477 359.896 45.3477 336.499C45.3477 313.102 165.705 316.625 314.174 316.625C462.642 316.625 583 313.102 583 336.499Z" fill="black"/>
<path d="M314.174 378.862C462.642 378.862 583 359.896 583 336.499C583 313.102 462.642 294.135 314.174 294.135C165.705 294.135 45.3476 313.102 45.3476 336.499C45.3476 359.896 165.705 378.862 314.174 378.862Z" fill="#3F3D56"/>
<path opacity="0.1" d="M323.952 355.85C359.192 355.85 387.759 349.879 387.759 342.513C387.759 335.147 359.192 329.176 323.952 329.176C288.712 329.176 260.145 335.147 260.145 342.513C260.145 349.879 288.712 355.85 323.952 355.85Z" fill="black"/>
<path d="M251.252 75.6361C265.277 75.6361 276.646 64.2666 276.646 50.2416C276.646 36.2167 265.277 24.8472 251.252 24.8472C237.227 24.8472 225.857 36.2167 225.857 50.2416C225.857 64.2666 237.227 75.6361 251.252 75.6361Z" fill="#ABCDED"/>
<path opacity="0.3" d="M202.174 51.5208C206.651 51.5208 210.279 47.8923 210.279 43.4162C210.279 38.9401 206.651 35.3116 202.174 35.3116C197.698 35.3116 194.07 38.9401 194.07 43.4162C194.07 47.8923 197.698 51.5208 202.174 51.5208Z" fill="#ABCDED"/>
<path opacity="0.5" d="M213.677 33.8655C218.154 33.8655 221.782 30.2369 221.782 25.7609C221.782 21.2848 218.154 17.6562 213.677 17.6562C209.201 17.6562 205.573 21.2848 205.573 25.7609C205.573 30.2369 209.201 33.8655 213.677 33.8655Z" fill="#ABCDED"/>
<path d="M225.181 16.2101C229.657 16.2101 233.285 12.5816 233.285 8.10553C233.285 3.62948 229.657 0.000915527 225.181 0.000915527C220.704 0.000915527 217.076 3.62948 217.076 8.10553C217.076 12.5816 220.704 16.2101 225.181 16.2101Z" fill="#ABCDED"/>
<path d="M250.639 197.747C264.664 197.747 276.034 186.377 276.034 172.352C276.034 158.327 264.664 146.958 250.639 146.958C236.614 146.958 225.245 158.327 225.245 172.352C225.245 186.377 236.614 197.747 250.639 197.747Z" fill="#C0B6FF"/>
<path opacity="0.3" d="M231.807 226.288C236.283 226.288 239.911 222.659 239.911 218.183C239.911 213.707 236.283 210.079 231.807 210.079C227.331 210.079 223.702 213.707 223.702 218.183C223.702 222.659 227.331 226.288 231.807 226.288Z" fill="#6C63FF"/>
<path opacity="0.5" d="M217.572 210.75C222.048 210.75 225.677 207.122 225.677 202.646C225.677 198.17 222.048 194.541 217.572 194.541C213.096 194.541 209.468 198.17 209.468 202.646C209.468 207.122 213.096 210.75 217.572 210.75Z" fill="#6C63FF"/>
<path d="M203.338 195.213C207.814 195.213 211.443 191.584 211.443 187.108C211.443 182.632 207.814 179.004 203.338 179.004C198.862 179.004 195.233 182.632 195.233 187.108C195.233 191.584 198.862 195.213 203.338 195.213Z" fill="#6C63FF"/>
<path opacity="0.3" d="M203.338 195.213C207.814 195.213 211.443 191.584 211.443 187.108C211.443 182.632 207.814 179.004 203.338 179.004C198.862 179.004 195.233 182.632 195.233 187.108C195.233 191.584 198.862 195.213 203.338 195.213Z" fill="white"/>
<path d="M291.57 311.31C291.57 311.31 291.415 320.374 290.641 322.776C289.866 325.177 290.641 328.199 290.641 328.199L287.697 335.946H298.155C298.155 335.946 300.635 324.635 300.635 323.628C300.635 322.621 299.163 314.099 299.163 314.099L291.57 311.31Z" fill="#FFB9B9"/>
<path d="M299.627 335.326C299.627 335.326 296.993 328.121 285.837 335.326C285.837 335.326 281.422 341.834 283.901 343.848C286.38 345.862 290.641 348.574 294.204 347.024C297.768 345.475 299.163 343.77 299.627 340.594C299.919 338.85 299.919 337.07 299.627 335.326Z" fill="#2F2E41"/>
<path d="M347.97 311.31C347.97 311.31 348.125 320.374 348.899 322.776C349.674 325.177 348.899 328.199 348.899 328.199L351.843 335.946H341.385C341.385 335.946 338.906 324.635 338.906 323.628C338.906 322.621 340.377 314.099 340.377 314.099L347.97 311.31Z" fill="#FFB9B9"/>
<path d="M339.913 335.326C339.913 335.326 342.547 328.121 353.703 335.326C353.703 335.326 358.119 341.834 355.639 343.848C353.16 345.862 348.899 348.574 345.336 347.024C341.772 345.475 340.377 343.77 339.913 340.594C339.621 338.85 339.621 337.07 339.913 335.326Z" fill="#2F2E41"/>
<path d="M288.936 140.562C288.936 140.562 296.528 151.021 297.458 154.352C298.388 157.683 304.198 157.374 303.811 154.352C303.423 151.331 293.275 135.139 293.275 135.139L288.936 140.562Z" fill="#FFB9B9"/>
<path d="M350.294 137.153C350.294 137.153 339.603 155.282 342.314 157.296C345.026 159.31 355.329 141.492 355.329 141.492L350.294 137.153Z" fill="#FFB9B9"/>
<path d="M340.3 151.331H322.636C319.383 151.331 308.692 152.183 306.987 151.331C305.283 150.479 298.93 150.556 298.93 150.556C298.93 150.556 285.992 180.15 289.479 203.779C292.965 227.408 282.119 309.141 287.232 311.62C292.345 314.099 296.916 317.198 301.332 317.353C305.748 317.507 313.96 315.571 314.889 314.254C315.819 312.937 320.39 198.124 320.39 198.124C320.39 198.124 322.017 311.387 325.038 313.944C328.059 316.5 336.736 318.205 342.159 317.353C347.582 316.5 353.16 313.479 354.245 311.465C355.33 309.45 350.449 252.586 350.449 252.586C350.449 252.586 357.964 165.276 345.568 154.352L340.3 151.331Z" fill="#2F2E41"/>
<path d="M314.347 61.3862C314.347 61.3862 318.221 74.0915 310.551 77.7327C302.881 81.3739 317.136 111.046 317.136 111.046C317.136 111.046 337.046 85.5573 337.046 79.9794L333.715 76.6481C333.715 76.6481 327.207 65.7246 329.222 62.3158C331.236 58.9071 314.347 61.3862 314.347 61.3862Z" fill="#FFB9B9"/>
<path opacity="0.1" d="M314.347 61.3862C314.347 61.3862 318.221 74.0915 310.551 77.7327C302.881 81.3739 317.136 111.046 317.136 111.046C317.136 111.046 337.046 85.5573 337.046 79.9794L333.715 76.6481C333.715 76.6481 327.207 65.7246 329.222 62.3158C331.236 58.9071 314.347 61.3862 314.347 61.3862Z" fill="black"/>
<path d="M320.002 104.693C320.002 104.693 315.354 92.5298 315.896 87.959C316.439 83.3882 315.15 75.9146 313.16 75.7003C311.171 75.486 290.718 82.1486 288.626 83.5431C286.535 84.9376 284.675 113.292 284.675 113.292L293.817 134.365C293.817 134.365 294.592 151.641 298.93 152.415C303.268 153.19 344.251 155.359 345.568 153.887C346.885 152.415 360.365 112.208 360.365 112.208L363.387 88.6562C363.387 88.6562 359.59 83.9305 355.562 82.8459C351.533 81.7613 338.518 77.113 337.046 76.958C335.574 76.8031 330.926 77.6553 330.538 79.0498C330.151 80.4442 320.002 104.693 320.002 104.693Z" fill="#D0CDE1"/>
<path d="M322.675 69.4819C331.446 69.4819 338.557 62.3715 338.557 53.6003C338.557 44.829 331.446 37.7186 322.675 37.7186C313.904 37.7186 306.793 44.829 306.793 53.6003C306.793 62.3715 313.904 69.4819 322.675 69.4819Z" fill="#FFB9B9"/>
<path d="M328.145 24.2407C325.172 20.6538 319.095 20.266 315.69 23.4458C314.772 24.3031 314.048 25.3568 313.09 26.1694C312.158 26.9036 311.125 27.4986 310.022 27.9356C306.391 29.5254 302.535 30.655 299.148 32.7144C295.76 34.7739 292.792 38.0329 292.373 41.9748C292.151 44.0596 292.653 46.1902 292.272 48.2518C291.674 51.4834 289.078 53.8944 286.904 56.3596C284.84 58.7013 282.982 62.0388 284.459 64.7892C285.715 67.1287 288.794 67.8229 290.524 69.8374C292.521 72.1632 292.266 75.6839 291.277 78.5857C290.288 81.4874 288.679 84.2139 288.273 87.2525C287.603 92.2539 290.351 97.156 293.93 100.713C295.568 102.341 297.452 103.809 299.662 104.476C301.33 104.941 303.09 104.962 304.769 104.538C306.447 104.113 307.986 103.257 309.232 102.054C310.452 100.826 311.364 99.3274 311.895 97.6798C312.425 96.0322 312.559 94.2825 312.285 92.5734C311.983 90.6951 311.211 88.8515 311.411 86.9598C311.823 83.0738 316.062 80.6227 317.066 76.8462C318.094 72.9822 315.5 69.2189 313.974 65.5234C312.048 60.8626 311.777 55.7018 311.732 50.6592C311.706 47.7742 312.003 44.3961 314.434 42.843C316.023 41.8281 318.044 41.9394 319.925 41.8003C322.117 41.6381 324.299 41.089 326.488 41.2916C328.677 41.4942 330.989 42.7054 331.583 44.8219C332.249 47.1915 330.566 49.5974 330.582 52.0587C330.59 53.2655 331.009 54.4414 331.017 55.6482C331.039 59.1533 327.791 61.6585 325.97 64.6532C324.724 66.792 324.157 69.2585 324.344 71.7266C324.53 74.1946 325.462 76.5478 327.015 78.4747C328.871 80.689 331.668 82.4997 331.989 85.3707C332.169 86.9811 331.492 88.5446 331.084 90.1128C330.676 91.6811 330.61 93.5543 331.75 94.7061C332.523 95.4871 333.671 95.7445 334.76 95.8892C337.566 96.2608 340.416 96.1226 343.173 95.4811C343.884 95.3692 344.552 95.0678 345.106 94.6085C346.475 93.2821 345.618 90.9308 346.25 89.1325C346.868 87.3753 348.79 86.4584 350.593 85.9882C352.395 85.5181 354.343 85.2703 355.813 84.1263C357.447 82.8548 358.163 80.6605 358.071 78.5922C357.979 76.5239 357.181 74.5527 356.251 72.7029C356.033 72.3652 355.928 71.9674 355.949 71.566C356.13 70.5 357.651 70.5921 358.732 70.579C361.586 70.5444 363.775 67.6213 363.854 64.7689C363.933 61.9165 362.414 59.255 360.6 57.0525C358.785 54.8499 356.628 52.9244 355.037 50.5556C352.316 46.5055 351.371 41.3383 348.067 37.7488C346.458 36.0315 344.399 34.8005 342.124 34.1957C340.372 33.7193 337.742 34.3158 336.376 33.0678C335.843 32.5805 335.615 31.7945 335.093 31.2763C334.244 30.4341 333.085 30.1863 332.132 29.5053C330.302 28.1968 329.542 25.9267 328.145 24.2407Z" fill="#2F2E41"/>
<path d="M291.57 84.1628L288.626 83.5431C288.626 83.5431 252.06 112.44 250.278 116.159C248.496 119.877 243.693 123.209 253.842 129.251C263.99 135.294 289.014 145.056 289.014 145.056L294.824 134.752L266.392 120.11C266.392 120.11 272.977 110.813 286.69 112.905L291.57 84.1628Z" fill="#D0CDE1"/>
<path d="M360.83 87.4941L363.387 88.6562C363.387 88.6562 401.89 116.469 397.319 123.441C392.748 130.413 355.562 146.992 355.562 146.992L348.977 136.611C348.977 136.611 349.487 136.37 350.365 135.95C355.913 133.3 376.134 123.546 374.93 122.744C373.535 121.814 361.837 111.433 358.583 111.046C355.329 110.658 360.83 87.4941 360.83 87.4941Z" fill="#D0CDE1"/>
<path d="M397.212 204.335C411.237 204.335 422.606 192.965 422.606 178.94C422.606 164.915 411.237 153.546 397.212 153.546C383.187 153.546 371.818 164.915 371.818 178.94C371.818 192.965 383.187 204.335 397.212 204.335Z" fill="#EA9B9B"/>
<path d="M416.026 232.883C420.502 232.883 424.131 229.255 424.131 224.779C424.131 220.303 420.502 216.674 416.026 216.674C411.55 216.674 407.921 220.303 407.921 224.779C407.921 229.255 411.55 232.883 416.026 232.883Z" fill="#FF6584"/>
<path opacity="0.3" d="M416.026 232.883C420.502 232.883 424.131 229.255 424.131 224.779C424.131 220.303 420.502 216.674 416.026 216.674C411.55 216.674 407.921 220.303 407.921 224.779C407.921 229.255 411.55 232.883 416.026 232.883Z" fill="white"/>
<path opacity="0.5" d="M430.267 217.352C434.743 217.352 438.371 213.723 438.371 209.247C438.371 204.771 434.743 201.142 430.267 201.142C425.791 201.142 422.162 204.771 422.162 209.247C422.162 213.723 425.791 217.352 430.267 217.352Z" fill="#FF6584"/>
<path opacity="0.3" d="M444.507 201.82C448.983 201.82 452.612 198.191 452.612 193.715C452.612 189.239 448.983 185.611 444.507 185.611C440.031 185.611 436.403 189.239 436.403 193.715C436.403 198.191 440.031 201.82 444.507 201.82Z" fill="#FF6584"/>
<path d="M550.937 291.252C550.937 322.531 532.345 333.448 509.405 333.448C508.875 333.448 508.345 333.443 507.82 333.432C506.754 333.409 505.705 333.359 504.661 333.281C483.959 331.824 467.879 320.343 467.879 291.252C467.879 261.139 506.38 223.129 509.238 220.35L509.243 220.344C509.349 220.238 509.405 220.188 509.405 220.188C509.405 220.188 550.937 259.979 550.937 291.252Z" fill="#6C63FF"/>
<path d="M507.893 328.665L523.086 307.444L507.859 330.992L507.82 333.432C506.754 333.409 505.705 333.359 504.661 333.281L506.296 301.996L506.285 301.751L506.313 301.706L506.469 298.753L491.204 275.144L506.514 296.538L506.553 297.163L507.787 273.519L494.72 249.122L507.948 269.367L509.238 220.35L509.243 220.188V220.344L509.026 259.002L522.036 243.68L508.97 262.334L508.629 283.499L520.775 263.188L508.579 286.614L508.389 298.385L526.022 270.109L508.322 302.488L507.893 328.665Z" fill="#3F3D56"/>
<path d="M118.933 333.485C118.933 348.613 109.94 353.894 98.8453 353.894C98.5888 353.894 98.3324 353.891 98.0786 353.886C97.563 353.875 97.0555 353.85 96.5507 353.813C86.538 353.108 78.7605 347.555 78.7605 333.485C78.7605 318.921 97.3821 300.537 98.7643 299.192L98.767 299.19C98.8183 299.138 98.8453 299.114 98.8453 299.114C98.8453 299.114 118.933 318.359 118.933 333.485Z" fill="#6C63FF"/>
<path d="M98.1137 351.58L105.462 341.316L98.0975 352.706L98.0786 353.886C97.563 353.875 97.0555 353.85 96.5507 353.813L97.3416 338.682L97.3362 338.563L97.3497 338.541L97.4253 337.113L90.042 325.694L97.4469 336.041L97.4658 336.344L98.0624 324.908L91.7427 313.109L98.1407 322.9L98.7643 299.192L98.767 299.114V299.19L98.6617 317.887L104.954 310.477L98.6347 319.498L98.47 329.735L104.344 319.912L98.4457 331.242L98.354 336.935L106.882 323.259L98.3216 338.919L98.1137 351.58Z" fill="#3F3D56"/>
<path d="M467.779 343.422C467.779 358.55 458.787 363.831 447.692 363.831C447.435 363.831 447.179 363.828 446.925 363.823C446.409 363.812 445.902 363.788 445.397 363.75C435.384 363.045 427.607 357.492 427.607 343.422C427.607 328.858 446.229 310.474 447.611 309.129L447.613 309.127C447.665 309.075 447.692 309.051 447.692 309.051C447.692 309.051 467.779 328.296 467.779 343.422Z" fill="#6C63FF"/>
<path d="M446.96 361.517L454.308 351.254L446.944 362.643L446.925 363.823C446.409 363.812 445.902 363.788 445.397 363.75L446.188 348.619L446.183 348.5L446.196 348.478L446.272 347.05L438.888 335.631L446.293 345.979L446.312 346.281L446.909 334.846L440.589 323.046L446.987 332.837L447.611 309.129L447.613 309.051V309.127L447.508 327.824L453.801 320.414L447.481 329.436L447.316 339.672L453.191 329.849L447.292 341.179L447.2 346.872L455.728 333.196L447.168 348.856L446.96 361.517Z" fill="#3F3D56"/>
</g>
<defs>
<clipPath id="clip0_667:9470">
<rect width="583" height="401.352" fill="white"/>
</clipPath>
</defs>
</svg>
