<svg width="53" height="61" viewBox="0 0 53 61" fill="none" xmlns="http://www.w3.org/2000/svg">
<path d="M49.111 17.6033L31.0887 2.05393C29.5111 0.695476 27.554 -0.0293419 25.5453 0.000910013C23.5367 0.0311619 21.5986 0.814647 20.0559 2.22009L3.14649 17.6033C2.16398 18.5037 1.37334 19.6276 0.829859 20.8965C0.286374 22.1653 0.00315654 23.5486 0 24.9495V51.1858C0 53.7209 0.921974 56.1522 2.5631 57.9448C4.20422 59.7374 6.43005 60.7445 8.75095 60.7445H9.81581C11.8334 60.7445 14.0111 58.9954 14.0111 56.7566V29.5495C14.0111 25.8327 16.2449 21.049 19.6156 21.049H34.1792C37.5819 21.049 40.3601 25.8327 40.3601 29.5495C40.3559 31.3395 39.7035 33.055 38.5455 34.3216C37.3875 35.5881 35.8179 36.3029 34.1792 36.3098L28.4226 36.6771C28.059 36.6977 27.707 36.8233 27.4024 37.041C27.0978 37.2587 26.8515 37.5609 26.6887 37.9165C26.5259 38.2722 26.4524 38.6686 26.4757 39.0654C26.499 39.4622 26.6183 39.8452 26.8213 40.1752C30.0639 45.5012 32.77 51.8329 37.8861 58.4794C38.4737 59.1872 39.1905 59.7528 39.9902 60.1399C40.79 60.527 41.655 60.727 42.5298 60.727H43.6907C46.0116 60.727 48.2374 59.7199 49.8786 57.9273C51.5197 56.1347 52.4417 53.7034 52.4417 51.1682V25.1069C52.4421 23.6625 52.1427 22.2367 51.5658 20.937C50.9888 19.6373 50.1495 18.4975 49.111 17.6033Z" fill="url(#paint0_linear_223:2461)"/>
<defs>
<linearGradient id="paint0_linear_223:2461" x1="0" y1="30.3629" x2="52.4417" y2="30.3629" gradientUnits="userSpaceOnUse">
<stop stop-color="#7751E8"/>
<stop offset="1" stop-color="#4D3FE8"/>
</linearGradient>
</defs>
</svg>
