<svg width="39" height="39" viewBox="0 0 39 39" fill="none" xmlns="http://www.w3.org/2000/svg">
<path d="M38.2195 35.6094L25.9176 23.3075C27.8266 20.8396 28.8593 17.8221 28.8593 14.6484C28.8593 10.8493 27.3766 7.28714 24.6955 4.60129C22.0143 1.91543 18.4427 0.4375 14.6484 0.4375C10.8541 0.4375 7.2824 1.92017 4.60129 4.60129C1.91543 7.2824 0.4375 10.8493 0.4375 14.6484C0.4375 18.4427 1.92017 22.0143 4.60129 24.6955C7.2824 27.3813 10.8493 28.8593 14.6484 28.8593C17.8221 28.8593 20.8348 27.8266 23.3028 25.9223L35.6047 38.2195C35.6408 38.2556 35.6836 38.2842 35.7307 38.3037C35.7779 38.3233 35.8284 38.3333 35.8794 38.3333C35.9305 38.3333 35.981 38.3233 36.0281 38.3037C36.0753 38.2842 36.1181 38.2556 36.1542 38.2195L38.2195 36.1589C38.2556 36.1228 38.2842 36.08 38.3037 36.0329C38.3233 35.9857 38.3333 35.9352 38.3333 35.8842C38.3333 35.8331 38.3233 35.7826 38.3037 35.7355C38.2842 35.6883 38.2556 35.6455 38.2195 35.6094V35.6094ZM22.1517 22.1517C20.1432 24.1555 17.4811 25.2592 14.6484 25.2592C11.8157 25.2592 9.1535 24.1555 7.14503 22.1517C5.1413 20.1432 4.03759 17.4811 4.03759 14.6484C4.03759 11.8157 5.1413 9.14877 7.14503 7.14503C9.1535 5.1413 11.8157 4.03759 14.6484 4.03759C17.4811 4.03759 20.148 5.13656 22.1517 7.14503C24.1555 9.1535 25.2592 11.8157 25.2592 14.6484C25.2592 17.4811 24.1555 20.148 22.1517 22.1517Z" fill="#4E4E4E"/>
</svg>
