<svg width="39" height="40" viewBox="0 0 39 40" fill="none" xmlns="http://www.w3.org/2000/svg">
<path d="M34.3187 21.96C34.3987 21.32 34.4587 20.68 34.4587 20C34.4587 19.32 34.3987 18.68 34.3187 18.04L38.5387 14.74C38.9187 14.44 39.0187 13.9 38.7787 13.46L34.7787 6.54C34.5987 6.22 34.2587 6.04 33.8987 6.04C33.7787 6.04 33.6587 6.06 33.5587 6.1L28.5787 8.1C27.5387 7.3 26.4187 6.64 25.1987 6.14L24.4387 0.84C24.3787 0.36 23.9587 0 23.4587 0H15.4587C14.9587 0 14.5387 0.36 14.4787 0.84L13.7187 6.14C12.4987 6.64 11.3787 7.32 10.3387 8.1L5.35866 6.1C5.23866 6.06 5.11866 6.04 4.99866 6.04C4.65866 6.04 4.31866 6.22 4.13866 6.54L0.138663 13.46C-0.121337 13.9 -0.0013366 14.44 0.378663 14.74L4.59866 18.04C4.51866 18.68 4.45866 19.34 4.45866 20C4.45866 20.66 4.51866 21.32 4.59866 21.96L0.378663 25.26C-0.0013366 25.56 -0.101337 26.1 0.138663 26.54L4.13866 33.46C4.31866 33.78 4.65866 33.96 5.01866 33.96C5.13866 33.96 5.25866 33.94 5.35866 33.9L10.3387 31.9C11.3787 32.7 12.4987 33.36 13.7187 33.86L14.4787 39.16C14.5387 39.64 14.9587 40 15.4587 40H23.4587C23.9587 40 24.3787 39.64 24.4387 39.16L25.1987 33.86C26.4187 33.36 27.5387 32.68 28.5787 31.9L33.5587 33.9C33.6787 33.94 33.7987 33.96 33.9187 33.96C34.2587 33.96 34.5987 33.78 34.7787 33.46L38.7787 26.54C39.0187 26.1 38.9187 25.56 38.5387 25.26L34.3187 21.96ZM30.3587 18.54C30.4387 19.16 30.4587 19.58 30.4587 20C30.4587 20.42 30.4187 20.86 30.3587 21.46L30.0787 23.72L31.8587 25.12L34.0187 26.8L32.6187 29.22L30.0787 28.2L27.9987 27.36L26.1987 28.72C25.3387 29.36 24.5187 29.84 23.6987 30.18L21.5787 31.04L21.2587 33.3L20.8587 36H18.0587L17.6787 33.3L17.3587 31.04L15.2387 30.18C14.3787 29.82 13.5787 29.36 12.7787 28.76L10.9587 27.36L8.83866 28.22L6.29866 29.24L4.89866 26.82L7.05866 25.14L8.83866 23.74L8.55866 21.48C8.49866 20.86 8.45866 20.4 8.45866 20C8.45866 19.6 8.49866 19.14 8.55866 18.54L8.83866 16.28L7.05866 14.88L4.89866 13.2L6.29866 10.78L8.83866 11.8L10.9187 12.64L12.7187 11.28C13.5787 10.64 14.3987 10.16 15.2187 9.82L17.3387 8.96L17.6587 6.7L18.0587 4H20.8387L21.2187 6.7L21.5387 8.96L23.6587 9.82C24.5187 10.18 25.3187 10.64 26.1187 11.24L27.9387 12.64L30.0587 11.78L32.5987 10.76L33.9987 13.18L31.8587 14.88L30.0787 16.28L30.3587 18.54ZM19.4587 12C15.0387 12 11.4587 15.58 11.4587 20C11.4587 24.42 15.0387 28 19.4587 28C23.8787 28 27.4587 24.42 27.4587 20C27.4587 15.58 23.8787 12 19.4587 12ZM19.4587 24C17.2587 24 15.4587 22.2 15.4587 20C15.4587 17.8 17.2587 16 19.4587 16C21.6587 16 23.4587 17.8 23.4587 20C23.4587 22.2 21.6587 24 19.4587 24Z" fill="#4A4A4A"/>
</svg>
