<svg width="582" height="373" viewBox="0 0 582 373" fill="none" xmlns="http://www.w3.org/2000/svg">
<g clip-path="url(#clip0_659:9160)">
<path d="M543.538 329.57H396.601C391.255 329.564 386.13 327.438 382.35 323.658C378.57 319.878 376.444 314.753 376.438 309.407V77.6309C376.444 72.2851 378.57 67.1599 382.35 63.3798C386.13 59.5997 391.255 57.4735 396.601 57.4675H543.538C548.884 57.4735 554.009 59.5997 557.789 63.3798C561.569 67.1599 563.695 72.2851 563.701 77.6309V309.407C563.695 314.753 561.569 319.878 557.789 323.658C554.009 327.438 548.884 329.564 543.538 329.57Z" fill="#E6E6E6"/>
<path d="M545.974 69.4992H396.324C394.651 69.5013 393.046 70.1669 391.863 71.3502C390.68 72.5335 390.014 74.1378 390.012 75.8112V310.609C390.015 312.283 390.68 313.887 391.864 315.07C393.047 316.253 394.651 316.919 396.324 316.922H545.974C547.648 316.919 549.252 316.254 550.435 315.07C551.619 313.887 552.284 312.283 552.286 310.609V75.8112C552.284 74.1378 551.619 72.5335 550.435 71.3502C549.252 70.1669 547.648 69.5013 545.974 69.4992Z" fill="white"/>
<path d="M400.193 57.4674C400.193 57.0585 400.356 56.6664 400.645 56.3772C400.934 56.0881 401.326 55.9254 401.735 55.9249H412.225C412.634 55.9249 413.026 56.0874 413.315 56.3767C413.605 56.666 413.767 57.0583 413.767 57.4674C413.767 57.8765 413.605 58.2689 413.315 58.5582C413.026 58.8475 412.634 59.01 412.225 59.01H401.735C401.326 59.0095 400.934 58.8468 400.645 58.5576C400.356 58.2684 400.193 57.8764 400.193 57.4674Z" fill="#E6E6E6"/>
<path d="M417.469 57.4674C417.47 57.0585 417.632 56.6664 417.921 56.3772C418.211 56.0881 418.603 55.9254 419.012 55.9249H429.501C429.91 55.9249 430.302 56.0874 430.592 56.3767C430.881 56.666 431.043 57.0583 431.043 57.4674C431.043 57.8765 430.881 58.2689 430.592 58.5582C430.302 58.8475 429.91 59.01 429.501 59.01H419.012C418.603 59.0095 418.211 58.8468 417.921 58.5576C417.632 58.2685 417.47 57.8764 417.469 57.4674Z" fill="#E6E6E6"/>
<path d="M521.127 57.4674C521.128 57.0585 521.29 56.6664 521.58 56.3772C521.869 56.0881 522.261 55.9254 522.67 55.9249H533.159C533.568 55.9249 533.961 56.0874 534.25 56.3767C534.539 56.666 534.702 57.0583 534.702 57.4674C534.702 57.8765 534.539 58.2689 534.25 58.5582C533.961 58.8475 533.568 59.01 533.159 59.01H522.67C522.261 59.0095 521.869 58.8468 521.58 58.5576C521.29 58.2685 521.128 57.8764 521.127 57.4674Z" fill="#E6E6E6"/>
<path d="M491.887 312.084C491.887 313.707 491.856 315.323 491.782 316.922H396.324C394.651 316.919 393.047 316.253 391.864 315.07C390.68 313.887 390.015 312.283 390.012 310.609V192.427C418.439 197.019 444.302 211.583 462.969 233.508C481.636 255.434 491.887 283.289 491.887 312.084Z" fill="#F2F2F2"/>
<path d="M488.645 129.838H453.045C451.425 129.838 450.111 131.151 450.111 132.771V136.432C450.111 138.052 451.425 139.365 453.045 139.365H488.645C490.265 139.365 491.579 138.052 491.579 136.432V132.771C491.579 131.151 490.265 129.838 488.645 129.838Z" fill="#6C63FF"/>
<path d="M511.272 148.892H430.418C428.798 148.892 427.484 150.205 427.484 151.825V155.486C427.484 157.106 428.798 158.419 430.418 158.419H511.272C512.892 158.419 514.205 157.106 514.205 155.486V151.825C514.205 150.205 512.892 148.892 511.272 148.892Z" fill="#E6E6E6"/>
<path d="M511.272 167.946H430.418C428.798 167.946 427.484 169.259 427.484 170.879V174.54C427.484 176.16 428.798 177.473 430.418 177.473H511.272C512.892 177.473 514.205 176.16 514.205 174.54V170.879C514.205 169.259 512.892 167.946 511.272 167.946Z" fill="#E6E6E6"/>
<path d="M497.427 300.875C496.963 300.896 496.504 300.774 496.112 300.526C495.72 300.278 495.414 299.915 495.235 299.487C495.056 299.059 495.013 298.586 495.111 298.133C495.21 297.679 495.446 297.267 495.787 296.952L495.942 296.335C495.921 296.286 495.901 296.237 495.88 296.187C495.413 295.084 494.63 294.144 493.631 293.484C492.631 292.824 491.458 292.475 490.26 292.479C489.063 292.483 487.893 292.842 486.898 293.509C485.903 294.176 485.127 295.122 484.669 296.229C482.835 300.645 480.5 305.069 479.925 309.739C479.672 311.803 479.779 313.895 480.241 315.923C475.934 306.528 473.698 296.317 473.683 285.982C473.682 283.389 473.826 280.797 474.115 278.22C474.353 276.107 474.684 274.009 475.107 271.926C477.415 260.625 482.372 250.033 489.569 241.019C493.052 239.118 495.869 236.195 497.64 232.644C498.282 231.368 498.735 230.005 498.986 228.599C498.593 228.651 498.194 228.683 497.801 228.709C497.679 228.715 497.55 228.721 497.428 228.728L497.381 228.73C496.95 228.749 496.521 228.643 496.148 228.425C495.775 228.207 495.473 227.885 495.278 227.499C495.084 227.113 495.005 226.679 495.051 226.249C495.098 225.82 495.267 225.412 495.54 225.077C495.709 224.868 495.879 224.659 496.049 224.451C496.307 224.128 496.571 223.813 496.828 223.491C496.858 223.46 496.886 223.428 496.912 223.394C497.209 223.027 497.505 222.666 497.801 222.299C497.26 221.459 496.533 220.756 495.675 220.244C492.706 218.505 488.609 219.709 486.464 222.396C484.312 225.082 483.906 228.85 484.654 232.206C485.388 235.062 486.604 237.772 488.248 240.22C488.087 240.426 487.92 240.626 487.759 240.832C484.815 244.617 482.249 248.682 480.098 252.968C480.621 248.167 479.997 243.309 478.276 238.796C476.533 234.59 473.265 231.048 470.387 227.412C466.93 223.044 459.842 224.95 459.233 230.487C459.227 230.54 459.221 230.594 459.215 230.647C459.643 230.889 460.061 231.145 460.471 231.415C460.985 231.759 461.383 232.25 461.614 232.824C461.844 233.398 461.896 234.028 461.762 234.632C461.629 235.236 461.315 235.785 460.864 236.208C460.413 236.631 459.844 236.908 459.233 237.002L459.17 237.012C459.322 238.552 459.592 240.079 459.975 241.579C461.087 245.766 463.052 249.678 465.747 253.07C468.442 256.462 471.808 259.261 475.635 261.291C475.886 261.42 476.131 261.548 476.382 261.671C474.221 267.795 472.866 274.174 472.35 280.648C472.058 284.467 472.075 288.304 472.401 292.121L472.382 291.986C471.557 287.742 469.294 283.912 465.973 281.144C461.04 277.092 454.071 275.6 448.75 272.343C448.185 271.98 447.527 271.786 446.855 271.785C446.183 271.783 445.524 271.974 444.957 272.334C444.39 272.694 443.937 273.209 443.653 273.818C443.369 274.427 443.265 275.105 443.353 275.771C443.36 275.819 443.368 275.866 443.375 275.913C444.168 276.237 444.941 276.609 445.688 277.028C446.115 277.269 446.533 277.525 446.943 277.796C447.457 278.139 447.856 278.63 448.086 279.204C448.317 279.778 448.368 280.409 448.235 281.013C448.101 281.616 447.788 282.166 447.336 282.589C446.885 283.012 446.316 283.288 445.705 283.383L445.642 283.392C445.597 283.399 445.559 283.405 445.514 283.412C446.869 286.648 448.771 289.627 451.137 292.217C454.06 295.354 457.592 297.86 461.518 299.582C465.444 301.305 469.68 302.207 473.967 302.234H473.973C475.137 307.291 476.823 312.213 479.004 316.921H496.977C497.041 316.722 497.099 316.516 497.157 316.316C495.493 316.421 493.823 316.321 492.184 316.02C493.517 314.383 494.851 312.734 496.184 311.098C496.214 311.068 496.242 311.035 496.268 311.002C496.944 310.164 497.627 309.333 498.304 308.496L498.304 308.495C498.34 305.928 498.045 303.367 497.427 300.875L497.427 300.875ZM476.846 260.389L476.856 260.376L476.846 260.402V260.389ZM472.865 296.276L472.711 295.928C472.717 295.677 472.717 295.425 472.711 295.168C472.711 295.097 472.698 295.026 472.698 294.955C472.756 295.4 472.807 295.844 472.872 296.289L472.865 296.276Z" fill="#CCCCCC"/>
<path d="M538.494 90.2286H403.804C403.513 90.2222 403.236 90.102 403.032 89.8936C402.828 89.6853 402.714 89.4054 402.714 89.114C402.714 88.8225 402.828 88.5426 403.032 88.3343C403.236 88.1259 403.513 88.0057 403.804 87.9993H538.494C538.785 88.0057 539.063 88.1259 539.267 88.3343C539.47 88.5426 539.584 88.8225 539.584 89.114C539.584 89.4054 539.47 89.6853 539.267 89.8936C539.063 90.102 538.785 90.2222 538.494 90.2286Z" fill="#CACACA"/>
<path d="M410.991 84.7759C412.8 84.7759 414.267 83.2764 414.267 81.4266C414.267 79.5769 412.8 78.0774 410.991 78.0774C409.181 78.0774 407.714 79.5769 407.714 81.4266C407.714 83.2764 409.181 84.7759 410.991 84.7759Z" fill="#3F3D56"/>
<path d="M422.308 84.7759C424.118 84.7759 425.585 83.2764 425.585 81.4266C425.585 79.5769 424.118 78.0774 422.308 78.0774C420.499 78.0774 419.032 79.5769 419.032 81.4266C419.032 83.2764 420.499 84.7759 422.308 84.7759Z" fill="#3F3D56"/>
<path d="M433.626 84.7759C435.436 84.7759 436.903 83.2764 436.903 81.4266C436.903 79.5769 435.436 78.0774 433.626 78.0774C431.817 78.0774 430.35 79.5769 430.35 81.4266C430.35 83.2764 431.817 84.7759 433.626 84.7759Z" fill="#3F3D56"/>
<path d="M533.229 79.3714H525.898C525.752 79.3743 525.614 79.434 525.512 79.5378C525.41 79.6416 525.353 79.7812 525.353 79.9265C525.353 80.0719 525.41 80.2115 525.512 80.3153C525.614 80.4191 525.752 80.4788 525.898 80.4817H533.229C533.375 80.4788 533.513 80.4191 533.615 80.3153C533.717 80.2115 533.774 80.0719 533.774 79.9265C533.774 79.7812 533.717 79.6416 533.615 79.5378C533.513 79.434 533.375 79.3743 533.229 79.3714Z" fill="#3F3D56"/>
<path d="M533.229 81.4553H525.898C525.752 81.4581 525.614 81.5179 525.512 81.6217C525.41 81.7255 525.353 81.865 525.353 82.0104C525.353 82.1558 525.41 82.2953 525.512 82.3991C525.614 82.5029 525.752 82.5627 525.898 82.5655H533.229C533.375 82.5627 533.513 82.5029 533.615 82.3991C533.717 82.2953 533.774 82.1558 533.774 82.0104C533.774 81.865 533.717 81.7255 533.615 81.6217C533.513 81.5179 533.375 81.4581 533.229 81.4553Z" fill="#3F3D56"/>
<path d="M533.229 83.5363H525.898C525.752 83.5392 525.614 83.599 525.512 83.7028C525.41 83.8066 525.353 83.9461 525.353 84.0915C525.353 84.2369 525.41 84.3764 525.512 84.4802C525.614 84.584 525.752 84.6438 525.898 84.6466H533.229C533.375 84.6438 533.513 84.584 533.615 84.4802C533.717 84.3764 533.774 84.2369 533.774 84.0915C533.774 83.9461 533.717 83.8066 533.615 83.7028C533.513 83.599 533.375 83.5392 533.229 83.5363Z" fill="#3F3D56"/>
<path d="M314.696 192.515H236.607C235.502 192.517 234.443 192.957 233.663 193.739C232.883 194.521 232.445 195.581 232.447 196.686V320.044H318.867V196.686C318.868 196.138 318.76 195.596 318.55 195.089C318.341 194.583 318.034 194.123 317.646 193.736C317.259 193.349 316.799 193.041 316.293 192.832C315.787 192.622 315.244 192.515 314.696 192.515ZM275.914 262.606C273.472 262.594 271.133 261.619 269.407 259.892C267.68 258.166 266.705 255.827 266.693 253.385V239.156C266.695 236.712 267.668 234.369 269.397 232.641C271.126 230.914 273.47 229.943 275.914 229.943C278.358 229.943 280.703 230.914 282.432 232.641C284.161 234.369 285.133 236.712 285.135 239.156V253.385C285.124 255.827 284.149 258.166 282.422 259.892C280.695 261.619 278.356 262.594 275.914 262.606Z" fill="#E6E6E6"/>
<path d="M232.178 316.099V328C232.18 328.617 232.425 329.208 232.861 329.644C233.297 330.08 233.889 330.326 234.505 330.327H316.809C317.425 330.324 318.015 330.078 318.45 329.642C318.886 329.206 319.132 328.616 319.135 328V316.099L232.178 316.099Z" fill="#CCCCCC"/>
<path d="M444.006 0H110.203C107.335 0.00456249 104.586 1.14584 102.558 3.17374C100.53 5.20164 99.3891 7.95075 99.3845 10.8186V236.07C99.3873 238.938 100.528 241.689 102.556 243.717C104.585 245.745 107.335 246.886 110.203 246.889H444.006C446.874 246.886 449.624 245.745 451.653 243.717C453.681 241.689 454.822 238.938 454.824 236.07V10.8186C454.82 7.95075 453.678 5.20164 451.651 3.17374C449.623 1.14584 446.874 0.0045607 444.006 0Z" fill="#E6E6E6"/>
<path d="M441.219 7.81415H112.992C111.457 7.81749 109.985 8.42978 108.9 9.51671C107.816 10.6036 107.206 12.0764 107.206 13.612V233.28C107.209 234.814 107.819 236.284 108.904 237.368C109.988 238.453 111.458 239.063 112.992 239.066H441.219C442.753 239.063 444.223 238.453 445.308 237.368C446.392 236.284 447.003 234.814 447.005 233.28V13.612C447.005 12.0764 446.396 10.6036 445.311 9.51671C444.226 8.42978 442.755 7.81749 441.219 7.81415Z" fill="white"/>
<path d="M447.005 13.612V233.28C447.002 234.814 446.392 236.284 445.308 237.368C444.223 238.453 442.753 239.063 441.219 239.066H325.479C312.675 227.192 302.171 213.058 294.493 197.375C293.988 196.364 293.507 195.342 293.05 194.307C286.054 179.127 281.818 162.822 280.54 146.156C280.456 145.134 280.383 144.111 280.335 143.077C280.179 140.431 280.107 137.748 280.107 135.054C280.084 117.134 283.468 99.3729 290.079 82.7169C290.476 81.6824 290.897 80.6599 291.33 79.6375C304.634 48.3783 328.674 22.9046 359.111 7.81415H441.219C442.755 7.81748 444.226 8.42978 445.311 9.51671C446.396 10.6036 447.005 12.0764 447.005 13.612Z" fill="#6C63FF"/>
<path d="M424.72 38.0795H117.599C117.279 38.0727 116.975 37.941 116.752 37.7127C116.528 37.4844 116.403 37.1777 116.403 36.8582C116.403 36.5387 116.528 36.2319 116.752 36.0036C116.975 35.7753 117.279 35.6436 117.599 35.6368H424.72C425.039 35.6436 425.343 35.7753 425.567 36.0036C425.79 36.2319 425.915 36.5387 425.915 36.8582C425.915 37.1777 425.79 37.4844 425.567 37.7127C425.343 37.941 425.039 38.0727 424.72 38.0795Z" fill="#CACACA"/>
<path d="M138.505 29.401C142.458 29.401 145.663 26.125 145.663 22.0839C145.663 18.0427 142.458 14.7668 138.505 14.7668C134.552 14.7668 131.347 18.0427 131.347 22.0839C131.347 26.125 134.552 29.401 138.505 29.401Z" fill="#3F3D56"/>
<path d="M163.231 29.401C167.184 29.401 170.389 26.125 170.389 22.0839C170.389 18.0427 167.184 14.7668 163.231 14.7668C159.278 14.7668 156.074 18.0427 156.074 22.0839C156.074 26.125 159.278 29.401 163.231 29.401Z" fill="#3F3D56"/>
<path d="M187.957 29.401C191.91 29.401 195.115 26.125 195.115 22.0839C195.115 18.0427 191.91 14.7668 187.957 14.7668C184.004 14.7668 180.8 18.0427 180.8 22.0839C180.8 26.125 184.004 29.401 187.957 29.401Z" fill="#3F3D56"/>
<path d="M409.833 16.5804H392.268C391.92 16.5873 391.589 16.7304 391.345 16.9791C391.101 17.2277 390.964 17.5621 390.964 17.9103C390.964 18.2585 391.101 18.5929 391.345 18.8415C391.589 19.0902 391.92 19.2333 392.268 19.2402H409.833C410.181 19.2333 410.512 19.0902 410.756 18.8415C411 18.5929 411.136 18.2585 411.136 17.9103C411.136 17.5621 411 17.2277 410.756 16.9791C410.512 16.7304 410.181 16.5873 409.833 16.5804Z" fill="#3F3D56"/>
<path d="M409.833 21.5725H392.268C391.92 21.5794 391.589 21.7226 391.345 21.9712C391.101 22.2199 390.964 22.5542 390.964 22.9025C390.964 23.2507 391.101 23.585 391.345 23.8337C391.589 24.0823 391.92 24.2255 392.268 24.2324H409.833C410.181 24.2255 410.512 24.0823 410.756 23.8337C411 23.585 411.136 23.2507 411.136 22.9025C411.136 22.5542 411 22.2199 410.756 21.9712C410.512 21.7226 410.181 21.5794 409.833 21.5725Z" fill="#3F3D56"/>
<path d="M409.833 26.5581H392.268C391.92 26.565 391.589 26.7081 391.345 26.9568C391.101 27.2055 390.964 27.5398 390.964 27.888C390.964 28.2363 391.101 28.5706 391.345 28.8193C391.589 29.0679 391.92 29.2111 392.268 29.218H409.833C410.181 29.2111 410.512 29.0679 410.756 28.8193C411 28.5706 411.136 28.2363 411.136 27.888C411.136 27.5398 411 27.2055 410.756 26.9568C410.512 26.7081 410.181 26.565 409.833 26.5581Z" fill="#3F3D56"/>
<path d="M211.636 109.431H168.687C167.067 109.431 165.754 110.745 165.754 112.365V116.936C165.754 118.556 167.067 119.87 168.687 119.87H211.636C213.256 119.87 214.569 118.556 214.569 116.936V112.365C214.569 110.745 213.256 109.431 211.636 109.431Z" fill="#6C63FF"/>
<path d="M236.427 130.308H143.896C142.276 130.308 140.963 131.621 140.963 133.241V137.813C140.963 139.433 142.276 140.747 143.896 140.747H236.427C238.047 140.747 239.36 139.433 239.36 137.813V133.241C239.36 131.621 238.047 130.308 236.427 130.308Z" fill="#E6E6E6"/>
<path d="M236.427 151.185H143.896C142.276 151.185 140.963 152.498 140.963 154.118V158.69C140.963 160.31 142.276 161.624 143.896 161.624H236.427C238.047 161.624 239.36 160.31 239.36 158.69V154.118C239.36 152.498 238.047 151.185 236.427 151.185Z" fill="#E6E6E6"/>
<path d="M148.994 226.472C149.001 230.772 148.235 235.038 146.733 239.066H112.992C111.458 239.063 109.988 238.453 108.904 237.368C107.819 236.284 107.209 234.814 107.206 233.28V190.843C109.092 190.538 110.998 190.385 112.908 190.386C117.647 190.386 122.34 191.319 126.718 193.132C131.096 194.946 135.074 197.604 138.425 200.955C141.776 204.306 144.434 208.284 146.248 212.662C148.061 217.04 148.994 221.733 148.994 226.472Z" fill="#6C63FF"/>
<path opacity="0.2" d="M447.306 82.7169V79.6375H395.691V43.9484H392.623V79.6376H333.466V43.9484H330.399V79.6376H291.33C290.896 80.66 290.476 81.6825 290.079 82.7169H330.399V143.077H280.335C280.383 144.111 280.456 145.134 280.54 146.156H330.399V194.307H293.05C293.507 195.342 293.988 196.364 294.493 197.375H330.399V237.851H333.466V197.375H392.623V237.851H395.691V197.375H447.306V194.307H395.691V194.307C395.691 187.984 396.936 181.723 399.356 175.881C401.776 170.039 405.323 164.731 409.794 160.259C414.265 155.788 419.573 152.241 425.415 149.822C431.257 147.402 437.518 146.156 443.842 146.156H447.306V143.077H395.691V82.7169H447.306ZM392.623 194.307H333.466V146.156H392.623V194.307ZM392.623 143.077H333.466V141.874C333.466 126.185 339.699 111.138 350.793 100.044C361.887 88.9495 376.934 82.7169 392.623 82.7169H392.623V143.077Z" fill="black"/>
<path d="M405.748 216.276C405.089 216.307 404.438 216.134 403.881 215.781C403.324 215.429 402.889 214.913 402.635 214.305C402.38 213.697 402.319 213.026 402.459 212.382C402.599 211.738 402.934 211.152 403.418 210.705C403.499 210.383 403.557 210.151 403.638 209.829C403.609 209.759 403.58 209.689 403.551 209.619C400.592 202.563 390.562 202.611 387.628 209.678C385.024 215.95 381.708 222.233 380.892 228.865C380.532 231.797 380.684 234.768 381.34 237.648C375.223 224.305 372.047 209.803 372.027 195.125C372.025 191.442 372.23 187.761 372.64 184.101C372.978 181.1 373.448 178.121 374.049 175.163C377.327 159.113 384.366 144.069 394.587 131.268C399.534 128.568 403.535 124.417 406.05 119.374C406.962 117.561 407.606 115.626 407.963 113.629C407.404 113.702 406.837 113.748 406.279 113.784C406.105 113.794 405.922 113.803 405.748 113.812L405.683 113.815C405.07 113.842 404.461 113.692 403.931 113.382C403.402 113.072 402.973 112.615 402.696 112.067C402.42 111.519 402.308 110.902 402.374 110.292C402.44 109.681 402.68 109.103 403.067 108.626C403.308 108.33 403.549 108.033 403.791 107.737C404.157 107.28 404.532 106.831 404.898 106.374C404.94 106.331 404.98 106.285 405.017 106.237C405.437 105.715 405.858 105.203 406.279 104.681C405.511 103.489 404.478 102.49 403.26 101.763C399.043 99.293 393.224 101.004 390.177 104.819C387.122 108.634 386.545 113.986 387.607 118.752C388.512 122.832 390.489 126.574 392.712 130.133C392.483 130.426 392.245 130.709 392.016 131.002C387.835 136.378 384.191 142.151 381.137 148.238C381.879 141.419 380.993 134.521 378.549 128.111C376.073 122.138 371.432 117.107 367.345 111.942C362.435 105.74 352.368 108.447 351.503 116.31C351.495 116.386 351.487 116.462 351.479 116.538C352.086 116.881 352.68 117.244 353.262 117.629C353.992 118.117 354.558 118.814 354.885 119.629C355.213 120.444 355.286 121.34 355.096 122.197C354.906 123.055 354.461 123.835 353.82 124.436C353.179 125.036 352.372 125.429 351.504 125.563L351.415 125.577C351.631 127.765 352.013 129.933 352.558 132.063C354.137 138.01 356.928 143.566 360.755 148.383C364.582 153.201 369.363 157.175 374.799 160.058C375.155 160.241 375.503 160.424 375.86 160.598C372.791 169.296 370.866 178.356 370.133 187.55C369.718 192.974 369.742 198.423 370.206 203.844L370.179 203.652C369.007 197.624 365.792 192.186 361.076 188.254C354.07 182.5 344.173 180.381 336.616 175.755C332.978 173.529 328.316 176.406 328.951 180.624C328.961 180.691 328.972 180.758 328.982 180.826C330.109 181.285 331.206 181.813 332.267 182.408C332.874 182.751 333.468 183.115 334.049 183.499C334.78 183.987 335.346 184.684 335.673 185.5C336.001 186.315 336.074 187.21 335.884 188.067C335.694 188.925 335.249 189.705 334.608 190.306C333.967 190.907 333.16 191.3 332.291 191.434L332.202 191.447C332.138 191.456 332.084 191.466 332.02 191.475C333.944 196.071 336.646 200.301 340.006 203.981C344.157 208.435 349.174 211.994 354.749 214.441C360.325 216.887 366.341 218.169 372.429 218.207H372.438C374.091 225.389 376.486 232.379 379.583 239.066H405.108C405.2 238.782 405.282 238.49 405.364 238.206C403.002 238.355 400.63 238.213 398.301 237.785C400.195 235.461 402.089 233.119 403.983 230.796C404.025 230.752 404.065 230.706 404.102 230.658C405.062 229.469 406.032 228.289 406.993 227.1L406.993 227.098C407.044 223.453 406.626 219.816 405.748 216.277L405.748 216.276ZM376.519 158.778L376.532 158.759L376.519 158.796V158.778ZM370.865 209.745L370.645 209.251C370.654 208.894 370.654 208.537 370.645 208.171C370.645 208.07 370.627 207.97 370.627 207.869C370.709 208.5 370.782 209.132 370.874 209.763L370.865 209.745Z" fill="#2F2E41"/>
<path d="M178.459 156.579V122.275C178.459 117.009 176.367 111.959 172.644 108.235C168.92 104.512 163.87 102.42 158.605 102.42H85.9256C80.6598 102.42 75.6098 104.512 71.8863 108.235C68.1629 111.959 66.071 117.009 66.071 122.275V310.472C66.071 315.738 68.1629 320.788 71.8863 324.512C75.6098 328.235 80.6598 330.327 85.9256 330.327H158.605C161.212 330.327 163.794 329.813 166.203 328.816C168.612 327.818 170.8 326.355 172.644 324.512C174.488 322.668 175.95 320.479 176.948 318.07C177.946 315.662 178.459 313.08 178.459 310.472V180.998C178.791 180.998 179.11 180.866 179.345 180.631C179.579 180.396 179.711 180.078 179.711 179.746V157.831C179.711 157.499 179.579 157.181 179.345 156.946C179.11 156.711 178.791 156.579 178.459 156.579Z" fill="#E6E6E6"/>
<path d="M174.234 122.411V310.337C174.234 314.24 172.694 317.986 169.949 320.761C167.203 323.536 163.473 325.115 159.57 325.156C159.516 325.161 159.462 325.164 159.408 325.163H86.3751C82.4433 325.162 78.6725 323.6 75.8923 320.82C73.112 318.04 71.5499 314.269 71.5496 310.337V122.411C71.5499 118.479 73.112 114.708 75.8923 111.928C78.6725 109.148 82.4433 107.586 86.3751 107.585H95.238C94.8024 108.655 94.6363 109.816 94.7545 110.965C94.8727 112.114 95.2715 113.217 95.9159 114.176C96.5603 115.135 97.4305 115.92 98.4498 116.464C99.4692 117.008 100.607 117.292 101.762 117.293H143.399C144.554 117.29 145.689 117.004 146.707 116.459C147.725 115.915 148.594 115.129 149.237 114.171C149.88 113.212 150.279 112.111 150.397 110.963C150.516 109.814 150.35 108.655 149.916 107.585H159.408C163.34 107.586 167.111 109.148 169.891 111.928C172.671 114.708 174.233 118.479 174.234 122.411Z" fill="white"/>
<path d="M159.753 319.362C159.753 321.309 159.692 323.24 159.57 325.156C159.516 325.161 159.462 325.164 159.408 325.162H86.3751C82.4433 325.162 78.6725 323.6 75.8923 320.82C73.112 318.039 71.5499 314.269 71.5496 310.337V226.589C95.3449 227.789 117.769 238.087 134.186 255.354C150.602 272.621 159.755 295.536 159.753 319.362Z" fill="#F2F2F2"/>
<path d="M66.4726 175.771C66.0245 175.77 65.5949 175.592 65.2781 175.275C64.9612 174.958 64.783 174.529 64.7825 174.08V162.588C64.7825 162.139 64.9605 161.71 65.2775 161.393C65.5945 161.076 66.0243 160.898 66.4726 160.898C66.9208 160.898 67.3507 161.076 67.6677 161.393C67.9846 161.71 68.1627 162.139 68.1627 162.588V174.08C68.1622 174.529 67.9839 174.958 67.6671 175.275C67.3502 175.592 66.9207 175.77 66.4726 175.771Z" fill="#E6E6E6"/>
<path d="M131.859 166.594H113.924C112.304 166.594 110.991 167.907 110.991 169.527V174.099C110.991 175.719 112.304 177.032 113.924 177.032H131.859C133.479 177.032 134.792 175.719 134.792 174.099V169.527C134.792 167.907 133.479 166.594 131.859 166.594Z" fill="#6C63FF"/>
<path d="M156.65 187.471H89.133C87.513 187.471 86.1997 188.784 86.1997 190.404V194.976C86.1997 196.596 87.513 197.909 89.133 197.909H156.65C158.27 197.909 159.584 196.596 159.584 194.976V190.404C159.584 188.784 158.27 187.471 156.65 187.471Z" fill="#E6E6E6"/>
<path d="M156.65 208.348H89.133C87.513 208.348 86.1997 209.661 86.1997 211.281V215.853C86.1997 217.473 87.513 218.786 89.133 218.786H156.65C158.27 218.786 159.584 217.473 159.584 215.853V211.281C159.584 209.661 158.27 208.348 156.65 208.348Z" fill="#E6E6E6"/>
<path d="M140.405 314.468C140.096 314.482 139.79 314.401 139.529 314.236C139.267 314.07 139.063 313.828 138.944 313.543C138.825 313.258 138.796 312.943 138.862 312.64C138.927 312.338 139.084 312.063 139.312 311.854L139.415 311.443C139.401 311.41 139.388 311.377 139.374 311.344C139.063 310.609 138.541 309.982 137.875 309.542C137.208 309.103 136.427 308.87 135.629 308.873C134.83 308.875 134.051 309.114 133.387 309.559C132.724 310.004 132.208 310.634 131.902 311.372C130.68 314.315 129.124 317.264 128.741 320.376C128.572 321.751 128.643 323.146 128.951 324.497C126.081 318.236 124.59 311.43 124.581 304.542C124.58 302.814 124.676 301.087 124.868 299.369C125.027 297.961 125.247 296.563 125.529 295.175C127.068 287.643 130.371 280.584 135.167 274.576C137.489 273.31 139.366 271.362 140.547 268.995C140.974 268.144 141.277 267.236 141.444 266.299C141.182 266.333 140.916 266.355 140.654 266.372C140.573 266.376 140.487 266.381 140.405 266.385L140.374 266.386C140.087 266.399 139.801 266.329 139.552 266.183C139.304 266.038 139.103 265.823 138.973 265.566C138.843 265.309 138.791 265.019 138.821 264.733C138.852 264.447 138.965 264.175 139.147 263.951C139.26 263.812 139.373 263.673 139.486 263.534C139.658 263.32 139.834 263.109 140.006 262.895C140.026 262.874 140.044 262.853 140.062 262.83C140.259 262.585 140.457 262.345 140.654 262.1C140.294 261.541 139.809 261.072 139.237 260.731C137.258 259.572 134.528 260.374 133.098 262.165C131.664 263.955 131.394 266.466 131.892 268.703C132.382 270.606 133.192 272.412 134.287 274.044C134.18 274.181 134.068 274.314 133.961 274.452C131.999 276.975 130.289 279.684 128.856 282.54C129.204 279.34 128.788 276.103 127.642 273.095C126.48 270.292 124.302 267.931 122.384 265.508C121.876 264.857 121.187 264.371 120.404 264.111C119.62 263.852 118.778 263.83 117.982 264.049C117.186 264.269 116.474 264.719 115.934 265.343C115.394 265.968 115.052 266.738 114.95 267.557C114.946 267.593 114.942 267.629 114.938 267.664C115.223 267.825 115.502 267.996 115.775 268.176C116.118 268.405 116.383 268.732 116.537 269.115C116.69 269.497 116.725 269.917 116.636 270.32C116.547 270.722 116.338 271.088 116.037 271.37C115.736 271.652 115.357 271.837 114.95 271.899L114.908 271.906C115.01 272.933 115.189 273.95 115.445 274.95C116.186 277.74 117.495 280.347 119.291 282.608C121.087 284.869 123.331 286.734 125.881 288.087C126.049 288.173 126.212 288.258 126.379 288.34C124.939 292.422 124.036 296.673 123.692 300.988C123.497 303.533 123.509 306.09 123.726 308.634L123.713 308.544C123.164 305.715 121.655 303.163 119.442 301.318C116.154 298.618 111.51 297.623 107.964 295.453C107.587 295.211 107.148 295.082 106.701 295.081C106.253 295.08 105.814 295.207 105.436 295.447C105.058 295.687 104.756 296.03 104.567 296.436C104.377 296.842 104.308 297.293 104.367 297.737L104.381 297.832C104.91 298.048 105.425 298.296 105.922 298.575C106.207 298.736 106.486 298.906 106.759 299.087C107.102 299.316 107.367 299.643 107.521 300.025C107.675 300.408 107.709 300.828 107.62 301.231C107.531 301.633 107.322 301.999 107.021 302.281C106.721 302.563 106.342 302.747 105.934 302.81L105.892 302.817C105.862 302.821 105.837 302.825 105.807 302.829C106.71 304.986 107.978 306.972 109.554 308.698C111.502 310.788 113.857 312.459 116.473 313.607C119.089 314.754 121.912 315.356 124.769 315.374H124.774C125.549 318.744 126.673 322.025 128.127 325.162H140.105C140.148 325.029 140.186 324.892 140.225 324.759C139.116 324.829 138.003 324.762 136.91 324.561C137.799 323.471 138.688 322.372 139.577 321.281C139.596 321.261 139.615 321.24 139.632 321.217C140.083 320.659 140.538 320.105 140.989 319.547L140.989 319.546C141.013 317.836 140.817 316.129 140.405 314.468L140.405 314.468ZM126.688 287.486L126.695 287.477L126.688 287.494V287.486ZM124.035 311.403L123.932 311.171C123.937 311.004 123.937 310.836 123.932 310.664C123.932 310.617 123.924 310.57 123.924 310.523C123.962 310.819 123.997 311.115 124.04 311.412L124.035 311.403Z" fill="#CCCCCC"/>
<path d="M66.1347 153.461C65.6866 153.461 65.257 153.282 64.9402 152.966C64.6233 152.649 64.4451 152.219 64.4446 151.771V140.278C64.4446 139.83 64.6226 139.4 64.9396 139.083C65.2566 138.766 65.6864 138.588 66.1347 138.588C66.5829 138.588 67.0128 138.766 67.3298 139.083C67.6467 139.4 67.8248 139.83 67.8248 140.278V151.771C67.8243 152.219 67.646 152.649 67.3292 152.966C67.0123 153.282 66.5828 153.461 66.1347 153.461Z" fill="#E6E6E6"/>
<path d="M111.091 109.518C111.092 109.07 111.27 108.641 111.587 108.324C111.904 108.007 112.333 107.829 112.781 107.828H124.274C124.722 107.828 125.152 108.006 125.469 108.323C125.786 108.64 125.964 109.07 125.964 109.518C125.964 109.967 125.786 110.397 125.469 110.714C125.152 111.031 124.722 111.209 124.274 111.209H112.781C112.333 111.208 111.904 111.03 111.587 110.713C111.27 110.396 111.092 109.967 111.091 109.518Z" fill="white"/>
<path d="M66.4726 195.376C66.0245 195.375 65.5949 195.197 65.2781 194.88C64.9612 194.563 64.783 194.134 64.7825 193.686V182.193C64.7825 181.745 64.9605 181.315 65.2775 180.998C65.5945 180.681 66.0243 180.503 66.4726 180.503C66.9208 180.503 67.3507 180.681 67.6677 180.998C67.9846 181.315 68.1627 181.745 68.1627 182.193V193.686C68.1622 194.134 67.9839 194.563 67.6671 194.88C67.3502 195.197 66.9207 195.375 66.4726 195.376Z" fill="#E6E6E6"/>
<path d="M130.696 111.209C131.63 111.209 132.387 110.452 132.387 109.518C132.387 108.585 131.63 107.828 130.696 107.828C129.763 107.828 129.006 108.585 129.006 109.518C129.006 110.452 129.763 111.209 130.696 111.209Z" fill="white"/>
<path d="M580.679 330.322L0.804821 330.53C0.591739 330.53 0.387599 330.445 0.237145 330.294C0.0866906 330.143 0.00219727 329.938 0.00219727 329.725C0.00219727 329.512 0.0866906 329.308 0.237145 329.157C0.387599 329.006 0.591739 328.921 0.804821 328.92L580.679 328.713C580.893 328.713 581.098 328.797 581.249 328.948C581.4 329.099 581.484 329.304 581.484 329.518C581.484 329.731 581.4 329.936 581.249 330.087C581.098 330.238 580.893 330.322 580.679 330.322Z" fill="#CACACA"/>
<path d="M247.954 152.857L244.904 153.511C244.884 152.235 244.725 150.965 244.43 149.724C244.152 151.244 243.568 152.692 242.712 153.979L225.219 157.714L208.424 139.99C208.398 131.128 213.32 124.393 222.143 124.393C222.675 124.393 223.226 124.419 223.784 124.47C228.551 123.672 233.442 124.755 237.427 127.491C241.411 130.227 244.179 134.402 245.147 139.138C251.402 145.296 249.133 148.916 247.954 152.857Z" fill="#2F2E41"/>
<path d="M256.554 360.135H262.9L265.919 335.659L256.553 335.659L256.554 360.135Z" fill="#FFB6B6"/>
<path d="M254.981 357.004L265.012 356.406V360.703L274.548 367.29C275.019 367.615 275.374 368.082 275.561 368.623C275.747 369.165 275.756 369.751 275.586 370.298C275.415 370.844 275.075 371.322 274.614 371.661C274.153 372 273.595 372.183 273.023 372.183H261.081L259.022 367.932L258.219 372.183H253.716L254.981 357.004Z" fill="#2F2E41"/>
<path d="M182.214 353.228L187.733 356.359L202.437 336.561L194.292 331.94L182.214 353.228Z" fill="#FFB6B6"/>
<path d="M182.39 349.729L191.41 354.158L189.289 357.896L194.333 368.331C194.583 368.846 194.661 369.428 194.556 369.99C194.451 370.553 194.169 371.068 193.751 371.459C193.334 371.85 192.802 372.098 192.233 372.165C191.665 372.233 191.09 372.117 190.592 371.834L180.205 365.941L180.513 361.228L177.716 364.528L173.8 362.306L182.39 349.729Z" fill="#2F2E41"/>
<path d="M280.009 157.145C279.196 157.263 278.419 157.557 277.732 158.008C277.045 158.458 276.465 159.054 276.033 159.753C275.601 160.452 275.328 161.237 275.232 162.053C275.137 162.869 275.221 163.696 275.48 164.476L265.77 172.88L269.438 180.027L282.984 167.966C284.265 167.444 285.311 166.471 285.922 165.231C286.534 163.99 286.669 162.568 286.303 161.234C285.936 159.901 285.093 158.748 283.933 157.994C282.773 157.24 281.377 156.938 280.01 157.145H280.009Z" fill="#FFB6B6"/>
<path d="M270.231 186.046C266.992 190.952 259.733 195.689 248.959 199.889C248.365 200.128 247.728 200.24 247.088 200.219C246.448 200.198 245.82 200.044 245.242 199.768C241.177 197.918 238.571 191.039 238.326 190.372L230.452 179.749C230.312 179.595 226.63 175.416 227.051 171.307C227.146 170.446 227.426 169.616 227.872 168.874C228.318 168.131 228.92 167.494 229.635 167.006C235.596 162.587 248.956 177.934 250.689 179.975L259.408 174.663L265.761 171.828L270.889 165.588L278.11 172.971L271.616 183.303C271.27 184.271 270.804 185.192 270.231 186.046Z" fill="#2F2E41"/>
<path d="M247.585 204.867C247.585 204.867 266.243 234.586 262.863 237.967C259.482 241.347 254.222 242.234 254.222 242.234L242.581 227.15L247.585 204.867Z" fill="#2F2E41"/>
<path d="M231.089 164.278L239.882 170.227C243.969 172.992 247.043 177.014 248.638 181.684C250.233 186.353 250.262 191.416 248.719 196.103L246.244 203.628L231.089 164.278Z" fill="#2F2E41"/>
<path d="M215.54 245.403L214.364 249.498L210.352 298.877L190.311 336.228L199.876 343.06L227.206 307.531L238.016 272.253L254.992 350.348L267.746 349.437L258.888 241.159L242.08 210.681L215.54 245.403Z" fill="#2F2E41"/>
<path d="M229.593 165.774L241.832 175.776C244.518 177.971 246.452 180.95 247.365 184.296C247.779 185.816 247.976 187.387 247.95 188.962L247.585 210.681L258.806 240.671C258.806 240.671 228.385 252.163 224.328 242.023C220.272 231.882 229.593 165.774 229.593 165.774Z" fill="#6C63FF"/>
<path d="M233.254 247.287C218.056 247.287 214.353 247.401 214.113 247.353L213.872 247.304V238.163L217.568 221.742C217.136 216.643 216.124 209.921 216.216 204.165C216.547 183.359 215.524 163.036 215.524 163.036L223.568 155.611L227.222 157.989L234 164.767C241.879 184.157 248.131 202.412 248.171 203.585L248.666 223.77L246.638 231.882C237.463 238.359 245.846 247.287 233.254 247.287Z" fill="#2F2E41"/>
<path opacity="0.2" d="M218.933 181.161L217.086 192.693L229.593 197.852L218.933 181.161Z" fill="black"/>
<path d="M231.533 153.448C238.296 153.448 243.779 147.966 243.779 141.202C243.779 134.439 238.296 128.957 231.533 128.957C224.77 128.957 219.288 134.439 219.288 141.202C219.288 147.966 224.77 153.448 231.533 153.448Z" fill="#FFB6B6"/>
<path opacity="0.2" d="M211.015 203.335C214.274 207.109 218.694 209.693 223.582 210.681C228.469 211.669 233.546 211.004 238.015 208.793L240.681 207.474L211.015 203.335Z" fill="black"/>
<path d="M253.626 200.516C253.08 199.903 252.406 199.416 251.651 199.091C250.897 198.766 250.08 198.611 249.259 198.635C248.438 198.66 247.632 198.865 246.898 199.235C246.165 199.605 245.521 200.131 245.013 200.776L232.649 197.305L228.707 204.305L246.236 208.961C247.377 209.743 248.766 210.079 250.138 209.906C251.51 209.733 252.771 209.062 253.682 208.021C254.593 206.98 255.091 205.641 255.08 204.258C255.07 202.875 254.553 201.544 253.626 200.516H253.626Z" fill="#FFB6B6"/>
<path d="M224.121 208.284C218.243 208.284 210.289 204.838 200.847 198.162C200.321 197.797 199.876 197.328 199.541 196.782C199.206 196.237 198.988 195.628 198.9 194.993C198.204 190.581 202.508 184.616 202.93 184.044L207.454 171.62C207.506 171.418 208.964 166.042 212.625 164.129C213.395 163.734 214.242 163.51 215.108 163.473C215.973 163.437 216.836 163.587 217.638 163.916C224.61 166.455 219.166 186.06 218.418 188.631L227.656 192.979L233.522 196.718L241.555 197.559L239.374 207.653L227.174 207.927C226.175 208.172 225.15 208.291 224.121 208.284Z" fill="#2F2E41"/>
<path d="M246.217 133.147C245.237 134.422 241.86 135.55 237.849 136.459C237.855 136.376 237.855 136.293 237.855 136.21C237.835 134.934 237.676 133.664 237.381 132.422C237.104 133.943 236.519 135.39 235.664 136.677C235.6 136.773 235.536 136.87 235.465 136.966C232.024 137.645 228.384 138.17 225.533 138.523C227.494 145.584 235.01 151.377 234.196 155.67L212.172 160.169C212.308 158.385 212.165 156.59 211.75 154.85C211.328 157.147 210.215 159.26 208.558 160.906L206.687 161.29L206.13 158.541C201.298 146.936 208.033 135.056 219.067 128.911C221.035 125.962 224.089 123.911 227.564 123.208L230.313 122.644C232.047 122.289 233.834 122.28 235.572 122.615C237.309 122.951 238.964 123.626 240.441 124.601C241.917 125.577 243.188 126.833 244.179 128.299C245.17 129.766 245.863 131.413 246.217 133.147Z" fill="#2F2E41"/>
<path d="M298.829 355.149L299.154 347.827C302.549 346.012 306.336 345.053 310.186 345.034C304.887 349.366 305.55 357.716 301.958 363.541C300.823 365.349 299.297 366.879 297.491 368.017C295.685 369.155 293.646 369.872 291.526 370.114L287.092 372.829C286.484 369.437 286.618 365.954 287.485 362.62C288.353 359.285 289.933 356.178 292.116 353.512C293.356 352.029 294.778 350.708 296.348 349.58C297.41 352.38 298.829 355.149 298.829 355.149Z" fill="#F2F2F2"/>
<path d="M309.578 373H155.182C154.969 372.999 154.765 372.914 154.614 372.763C154.464 372.613 154.379 372.408 154.379 372.195C154.379 371.982 154.464 371.778 154.614 371.627C154.765 371.476 154.969 371.391 155.182 371.39H309.578C309.683 371.39 309.788 371.41 309.886 371.451C309.984 371.491 310.073 371.55 310.148 371.625C310.223 371.7 310.283 371.789 310.323 371.886C310.364 371.984 310.385 372.089 310.385 372.195C310.385 372.301 310.364 372.406 310.323 372.504C310.283 372.601 310.223 372.69 310.148 372.765C310.073 372.84 309.984 372.899 309.886 372.939C309.788 372.98 309.683 373 309.578 373Z" fill="#CACACA"/>
</g>
<defs>
<clipPath id="clip0_659:9160">
<rect width="581.485" height="373" fill="white"/>
</clipPath>
</defs>
</svg>
