<svg width="33" height="25" viewBox="0 0 33 25" fill="none" xmlns="http://www.w3.org/2000/svg">
<path fill-rule="evenodd" clip-rule="evenodd" d="M1.21868 0C0.895465 0 0.585489 0.128396 0.356943 0.356943C0.128396 0.585489 0 0.895465 0 1.21868V3.65603C0 3.97925 0.128396 4.28922 0.356943 4.51777C0.585489 4.74632 0.895465 4.87471 1.21868 4.87471H3.65603C3.97925 4.87471 4.28922 4.74632 4.51777 4.51777C4.74632 4.28922 4.87471 3.97925 4.87471 3.65603V1.21868C4.87471 0.895465 4.74632 0.585489 4.51777 0.356943C4.28922 0.128396 3.97925 0 3.65603 0H1.21868ZM3.65603 1.21868H1.21868V3.65603H3.65603V1.21868Z" fill="#4A4A4A"/>
<path d="M8.53125 2.43743C8.53125 2.11421 8.65965 1.80424 8.88819 1.57569C9.11674 1.34715 9.42671 1.21875 9.74993 1.21875H31.6861C32.0093 1.21875 32.3193 1.34715 32.5479 1.57569C32.7764 1.80424 32.9048 2.11421 32.9048 2.43743C32.9048 2.76064 32.7764 3.07062 32.5479 3.29916C32.3193 3.52771 32.0093 3.65611 31.6861 3.65611H9.74993C9.42671 3.65611 9.11674 3.52771 8.88819 3.29916C8.65965 3.07062 8.53125 2.76064 8.53125 2.43743ZM9.74993 10.9682C9.42671 10.9682 9.11674 11.0966 8.88819 11.3251C8.65965 11.5537 8.53125 11.8636 8.53125 12.1869C8.53125 12.5101 8.65965 12.82 8.88819 13.0486C9.11674 13.2771 9.42671 13.4055 9.74993 13.4055H31.6861C32.0093 13.4055 32.3193 13.2771 32.5479 13.0486C32.7764 12.82 32.9048 12.5101 32.9048 12.1869C32.9048 11.8636 32.7764 11.5537 32.5479 11.3251C32.3193 11.0966 32.0093 10.9682 31.6861 10.9682H9.74993ZM9.74993 20.7176C9.42671 20.7176 9.11674 20.846 8.88819 21.0745C8.65965 21.3031 8.53125 21.6131 8.53125 21.9363C8.53125 22.2595 8.65965 22.5695 8.88819 22.798C9.11674 23.0266 9.42671 23.155 9.74993 23.155H31.6861C32.0093 23.155 32.3193 23.0266 32.5479 22.798C32.7764 22.5695 32.9048 22.2595 32.9048 21.9363C32.9048 21.6131 32.7764 21.3031 32.5479 21.0745C32.3193 20.846 32.0093 20.7176 31.6861 20.7176H9.74993Z" fill="#4A4A4A"/>
<path fill-rule="evenodd" clip-rule="evenodd" d="M0 10.9677C0 10.6445 0.128396 10.3345 0.356943 10.106C0.585489 9.87742 0.895465 9.74902 1.21868 9.74902H3.65603C3.97925 9.74902 4.28922 9.87742 4.51777 10.106C4.74632 10.3345 4.87471 10.6445 4.87471 10.9677V13.4051C4.87471 13.7283 4.74632 14.0382 4.51777 14.2668C4.28922 14.4953 3.97925 14.6237 3.65603 14.6237H1.21868C0.895465 14.6237 0.585489 14.4953 0.356943 14.2668C0.128396 14.0382 0 13.7283 0 13.4051V10.9677ZM1.21868 10.9677H3.65603V13.4051H1.21868V10.9677ZM1.21868 19.4984C0.895465 19.4984 0.585489 19.6268 0.356943 19.8554C0.128396 20.0839 0 20.3939 0 20.7171V23.1545C0 23.4777 0.128396 23.7877 0.356943 24.0162C0.585489 24.2448 0.895465 24.3732 1.21868 24.3732H3.65603C3.97925 24.3732 4.28922 24.2448 4.51777 24.0162C4.74632 23.7877 4.87471 23.4777 4.87471 23.1545V20.7171C4.87471 20.3939 4.74632 20.0839 4.51777 19.8554C4.28922 19.6268 3.97925 19.4984 3.65603 19.4984H1.21868ZM3.65603 20.7171H1.21868V23.1545H3.65603V20.7171Z" fill="#4A4A4A"/>
</svg>
