<svg width="17" height="16" viewBox="0 0 17 16" fill="none" xmlns="http://www.w3.org/2000/svg">
<path d="M14.8333 5.3335H10.3904L11.2795 2.66795C11.4394 2.18662 11.3586 1.65304 11.0618 1.24137C10.7649 0.829705 10.2835 0.583496 9.77609 0.583496H8.49992C8.26479 0.583496 8.04234 0.687996 7.89113 0.868496L4.17029 5.3335H2.16659C1.29338 5.3335 0.583252 6.04362 0.583252 6.91683V14.0418C0.583252 14.915 1.29338 15.6252 2.16659 15.6252H12.7013C13.0234 15.6241 13.3376 15.5253 13.6024 15.3418C13.8671 15.1583 14.07 14.8988 14.1841 14.5976L16.3667 8.77804C16.3999 8.68915 16.4167 8.59503 16.4166 8.50016V6.91683C16.4166 6.04362 15.7065 5.3335 14.8333 5.3335ZM2.16659 6.91683H3.74992V14.0418H2.16659V6.91683ZM14.8333 8.35687L12.7013 14.0418H5.33325V6.41175L8.87042 2.16683H9.77767L8.54109 5.8742C8.50094 5.9932 8.48975 6.12006 8.50842 6.24425C8.5271 6.36844 8.57512 6.48639 8.64848 6.58832C8.72185 6.69025 8.81847 6.77322 8.93031 6.83035C9.04215 6.88748 9.166 6.91713 9.29159 6.91683H14.8333V8.35687Z" fill="#3E3D3D"/>
</svg>
